<?xml version="1.0" encoding="UTF-8"?>
<svg version="1.1" viewBox="0 0 1600 496" width="1280" height="1280" xmlns="http://www.w3.org/2000/svg">
<path transform="translate(0)" d="m0 0h1600v496h-1600v-496z" fill="#FBFEFE"/>
<path transform="translate(123 25.7)" d="m0 0c0.79 0 1.58 0.01 2.4 0.01 0.83 0 1.67 0 2.53-0.01 2.78-0.01 5.57-0 8.35 0.01 1.96-0.01 3.92-0.01 5.88-0.01 4.13-0 8.27 0 12.4 0.01 5.2 0.01 10.4 0.01 15.6-0.01 82.3-0.15 82.3-0.15 116 15.3 0.99 0.44 1.97 0.88 2.99 1.33 7.76 3.65 14.4 8.29 21 13.7 0.76 0.6 1.51 1.2 2.29 1.82 5.02 4.17 8.92 8.88 12.7 14.2 0.51 0.69 1.01 1.38 1.53 2.08 12.1 17.3 21.3 40.9 22.2 62.1 0.24 2.49 0.71 4.69 1.28 7.12 1.49 7.28 1.34 14.6 1.31 22-0.01 0.75-0.01 1.51-0.01 2.28-0.04 12.3-0.76 24.3-3.31 36.4-0.26 1.29-0.53 2.57-0.81 3.9-5.42 22.6-15.6 42.8-32.2 59.1-0.88 0.89-1.77 1.77-2.68 2.68-16.9 16.1-37.8 23.9-60.3 28.3-1.15 0.24-2.31 0.47-3.5 0.71-15.6 2.86-31.6 2.62-47.4 2.92-1.76 0.03-1.76 0.03-3.55 0.06-17.5 0.32-34.9 0.34-52.4 0-1.01-0.02-2.03-0.04-3.08-0.05-2.87-0.05-5.75-0.12-8.63-0.19-1.24-0.02-1.24-0.02-2.52-0.04-4.04-0.12-7.8-0.51-11.7-1.43-0.8-0.18-1.59-0.37-2.41-0.55-0.6-0.14-1.19-0.28-1.81-0.43-0.04-34.5-0.08-69-0.1-103 0-4.07 0-8.13-0.01-12.2v-2.46c-0.01-13.1-0.02-26.2-0.04-39.4-0.02-13.5-0.03-26.9-0.04-40.4 0-8.32-0.01-16.6-0.02-24.9-0.01-5.7-0.02-11.4-0.01-17.1 0-3.29-0.01-6.58-0.02-9.87-0.01-3.56 0-7.12 0-10.7 0-1.05-0.01-2.1-0.02-3.18 0.01-0.95 0.01-1.89 0.02-2.87 0-0.82 0-1.65-0.01-2.49 0.59-4.72 3.96-4.23 7.91-4.26z" fill="#009BBA"/>
<path transform="translate(497 22.8)" d="m0 0c2.88 0.24 5.62 0.18 8.51 0.05 24.6-0.16 53.4 11.5 71.4 28.2 2.44 2.9 2.44 2.9 4 6-0.78 5.19-3.88 8.94-7 13-1 1.32-1.99 2.64-2.98 3.96-0.5 0.67-1 1.33-1.52 2.02-2.8 3.76-5.48 7.61-8.16 11.4-2.22 3.15-4.53 5.94-7.34 8.57l-6-3v-2c-0.71-0.22-1.41-0.45-2.13-0.69-2.87-1.31-2.87-1.31-5.58-3.64-3.36-2.85-6.92-4.8-10.9-6.73-0.69-0.34-1.39-0.69-2.11-1.04-8.85-4.24-17.4-7.45-27.3-6.9-1.49-0.49-1.49-0.49-3-1-6.7-0.31-13.4-0.29-20 1-0.98 0.17-1.96 0.35-2.96 0.53-8.75 1.73-16 4.45-22.4 10.8-0.54 0.86-1.07 1.73-1.62 2.62-0.37 0.54-0.74 1.08-1.12 1.64-3.71 6.1-3.82 12.4-2.88 19.4 2.39 8.23 8.83 12.9 16 17 3.6 1.63 7.21 2.9 11 4 1.06 0.32 2.12 0.63 3.21 0.96 3.68 1.01 7.34 1.8 11.1 2.52 1.41 0.28 2.82 0.55 4.22 0.83 1.1 0.22 1.1 0.22 2.21 0.43 14.7 2.91 29 6.42 43.3 11.3 1.23 0.4 2.45 0.79 3.72 1.2 21.4 7.4 35.6 21.2 45.6 41 8.33 19.3 10.5 43 2.69 62.8-0.38 1.03-0.75 2.06-1.14 3.12-7.56 19.7-21.6 34.2-40.5 43.3-8.07 3.46-16.2 6.88-25 7.35-2.57 0.24-2.57 0.24-5.97 1.27-4.12 1.04-8.11 1.31-12.3 1.3-0.74 0.01-1.48 0.01-2.24 0.02-2.36 0.01-4.72 0.01-7.09-0.01h-2.44c-12-0.04-23.5-0.61-35.2-3.31-1.37-0.28-2.73-0.56-4.09-0.84-13.3-2.9-25.8-8.02-37.5-15-0.65-0.39-1.3-0.77-1.97-1.17-1.53-0.94-3-1.97-4.46-3.02v-2c-0.59-0.1-1.17-0.21-1.77-0.31-2.57-0.79-3.97-1.86-5.98-3.63-0.62-0.52-1.23-1.04-1.86-1.59-1.39-1.47-1.39-1.47-1.39-3.47h-2v-2h-2v-2c-0.99-0.33-1.98-0.66-3-1-1.9-2.29-1.9-2.29-3.82-5.19-0.64-0.94-1.29-1.88-1.95-2.85-1.23-2.96-1.23-2.96-0.75-5.93 1.76-3.52 3.97-6.31 6.58-9.22 1-1.14 1.99-2.28 2.99-3.42 0.5-0.57 0.99-1.13 1.51-1.72 2.11-2.45 4.11-5 6.12-7.54 8.97-11 8.97-11 15.3-13.1 4.87 4.63 4.87 4.63 6 8 0.63 0.29 1.27 0.58 1.93 0.88 2.79 1.52 2.91 3.24 4.07 6.12 1.32 0.69 2.65 1.35 4 2 1.43 1.19 2.85 2.4 4.25 3.63 16.4 13.4 36 17.7 56.8 17.7 1.19 0.02 2.38 0.04 3.6 0.05 11.2 0.01 21.1-1.36 29.3-9.36 6.18-6.54 8.95-13.9 9.5-22.9-0.25-7.3-3.39-14.6-7.69-20.5-11.7-10.9-28.1-13.9-43.2-17.1-49.2-10.3-49.2-10.3-67.6-25.6-0.55-0.43-1.09-0.85-1.65-1.29-1.49-1.19-2.93-2.45-4.35-3.71v-2c-0.6-0.24-1.19-0.49-1.8-0.74-9.1-5.2-14.1-20-17.3-29.6-5.43-21.5-1.83-42.9 9.06-61.9 11.5-19.2 33.6-30.2 54.6-35.7 13.3-2.98 27-3.7 40.5-2.31z" fill="#009BBA"/>
<path transform="translate(774,99)" d="m0 0c2.5 2.19 2.5 2.19 5 5 0.91 0.94 0.91 0.94 1.84 1.9 13.2 14 13.2 14 13.2 21.1l4 1c0.63-0.92 1.26-1.84 1.91-2.78 11.4-16.5 25.4-29.6 45.8-33.9 22.1-2.93 39.7 0.35 59.3 10.7v2h2c4 4.47 4 4.47 4 7h2c1.29 2.56 2.59 5.12 3.88 7.69 0.54 1.08 0.54 1.08 1.1 2.18 2.61 5.2 4.97 10.1 6.08 15.9 0.16 0.78 0.31 1.56 0.48 2.36 1.43 8.9 1.6 17.6 1.57 26.6v4.41c0 3.96 0 7.93-0.01 11.9 0 4.15-0.01 8.3-0.01 12.5 0 7.85-0.01 15.7-0.02 23.6-0.01 8.94-0.01 17.9-0.02 26.8-0.01 18.4-0.03 36.8-0.05 55.2-5.97 0.76-11.7 1.18-17.8 1.19-0.84 0.01-1.67 0.02-2.54 0.03-0.8 0.01-1.61 0.01-2.44 0.01-0.73 0-1.45 0.01-2.2 0.01-2.51-0.29-4.01-0.75-6.07-2.24-1.13-3.46-1.13-6.88-1.13-10.5 0-1.05-0.01-2.11-0.01-3.19 0.01-1.09 0.01-2.19 0.02-3.31-0.01-1.06-0.01-2.12-0.02-3.21 0.01-1.6 0.01-1.6 0.01-3.23v-2.87c0.11-3.12 0.35-6.17 0.63-9.27 0.76-9.55 0.64-19.1 0.63-28.7 0-2.04 0-4.07 0.01-6.11 0-4.23 0-8.47-0.01-12.7-0.01-5.43 0-10.9 0-16.3 0.01-4.19 0.01-8.38 0-12.6 0-2 0-4 0.01-6.01 0-2.79-0.01-5.58-0.01-8.37 0-1.24 0-1.24 0.01-2.5-0.02-3.58-0.26-6.73-1.14-10.2-0.09-1.84-0.18-3.69-0.24-5.53-0.43-12.2-3.69-21.7-12.6-30.2-10.1-7.27-22.1-7.34-34.1-6.25-9.45 1.65-17.7 5.84-25 12-0.63 0.52-1.27 1.04-1.92 1.58-11.3 10.2-17.1 26.6-19.1 41.4-0.19 4.11-0.15 8.2-0.06 12.3l0.09 6.3c0.02 0.92 0.03 1.83 0.05 2.78-0.08 2.61-0.08 2.61-0.58 4.68-0.71 4.14-0.63 8.21-0.61 12.4v2.87c0 3.12 0 6.25 0.01 9.37 0 2.16 0.01 4.33 0.01 6.5 0 5.7 0.01 11.4 0.02 17.1 0.01 5.82 0.02 11.6 0.02 17.4 0.01 11.4 0.03 22.8 0.05 34.2-3.95 1.69-6.65 2.2-11 1.98-1.11-0.05-2.22-0.11-3.37-0.16-1.15-0.06-2.3-0.13-3.48-0.2-1.17-0.05-2.34-0.11-3.55-0.17-2.88-0.14-5.76-0.29-8.64-0.45-1.33-2.67-1.13-4.69-1.13-7.68-0.01-1.2-0.01-2.41-0.01-3.66v-4.04c0-1.41-0.01-2.82-0.01-4.23-0.01-3.05-0.02-6.1-0.02-9.15 0-4.84-0.02-9.67-0.04-14.5-0.01-1.65-0.01-3.31-0.02-4.97 0-0.83-0.01-1.66-0.01-2.51-0.04-11.3-0.07-22.5-0.09-33.8 0-7.6-0.03-15.2-0.07-22.8-0.01-4.01-0.03-8.02-0.02-12 0-3.79-0.01-7.58-0.04-11.4-0.01-2.03 0-4.05 0.01-6.08-0.14-13.6-2.28-27.6-12-37.8-6.25-5.68-12.7-6.95-20.8-7.21-1.27-0.05-1.27-0.05-2.56-0.1-14.8-0.48-25.1 2.98-37.1 11.8-0.82 0.59-1.63 1.17-2.47 1.77-2.96 2.61-5.02 5.49-7.09 8.79-0.59 0.94-0.59 0.94-1.19 1.89-9.07 14.8-10.7 31.7-10.3 48.8 0.01 3.79 0.01 3.79-0.48 5.92-0.75 4.2-0.64 8.35-0.62 12.6v2.96c0 3.21 0 6.43 0.01 9.65 0 2.24 0.01 4.47 0.01 6.71 0 5.88 0.01 11.8 0.02 17.6 0.01 6 0.02 12 0.02 18 0.01 11.8 0.03 23.5 0.05 35.3-4.84 1.61-9.8 1.23-14.9 1.25-1.63 0.03-1.63 0.03-3.3 0.06-1.05 0.01-2.1 0.01-3.19 0.02-0.96 0.01-1.92 0.02-2.91 0.03-3.38-0.45-5.06-1.22-7.72-3.36-0.62-3.05-0.62-3.05-0.61-6.87-0.01-1.05-0.01-1.05-0.01-2.13-0.01-2.36 0.01-4.72 0.04-7.08 0-1.7-0.01-3.39-0.01-5.08-0.01-4.61 0.02-9.22 0.05-13.8 0.03-4.84 0.03-9.68 0.03-14.5 0.01-8.16 0.04-16.3 0.08-24.5 0.05-11.4 0.08-22.8 0.09-34.2l0.06-23.9c0-1.91 0.01-3.83 0.01-5.74 0.1-36.3 0.1-36.3 0.66-53.5 0.03-1.07 0.06-2.14 0.09-3.24 0.04-0.95 0.08-1.9 0.12-2.89 0.03-0.81 0.05-1.63 0.09-2.48 0.31-1.96 0.31-1.96 2.31-3.96 2.61-0.32 2.61-0.32 5.88-0.41 1.17-0.04 2.34-0.08 3.54-0.12 1.22-0.03 2.44-0.06 3.7-0.09 1.24-0.04 2.47-0.08 3.74-0.12 3.04-0.1 6.09-0.18 9.14-0.26v2h2c-0.01 0.84-0.02 1.68-0.03 2.54-0.04 3.1-0.06 6.21-0.08 9.31-0.01 2.01-0.04 4.02-0.07 6.02 0 1.26-0.01 2.51-0.02 3.81-0.01 1.16-0.02 2.32-0.03 3.52-0.06 2.94-0.06 2.94 2.23 4.8 0.85-0.99 1.69-1.98 2.56-3 0.55-0.64 1.1-1.28 1.67-1.93 1.16-1.36 2.33-2.73 3.48-4.11 22-25.8 61.3-35.3 91.3-17z" fill="#000002"/>
<path transform="translate(1063 89.9)" d="m0 0c3.36-0.05 6.09 0.02 9.3 1.09 1.56-0.04 3.12-0.1 4.68-0.19 15.7-0.13 32.8 6.53 44.3 17.2v3h2c10.1 12.8 13.3 27.6 13.2 43.6 0 1.1 0 2.21-0.01 3.35 0 3.64-0.02 7.28-0.04 10.9-0.01 2.54-0.01 5.09-0.02 7.63-0.01 6-0.03 12-0.06 18-0.04 11.4-0.08 22.7-0.1 34.1-0.01 3.72-0.03 7.45-0.05 11.2 0 2.29-0.01 4.58-0.01 6.88-0.01 1.02-0.02 2.05-0.03 3.11-0.25 12.2-0.25 12.2 4.11 23.3 3.48 2.98 6.38 3.34 10.9 3.17 3.05-0.26 6.04-0.67 9.07-1.17 4.98 5.96 5.18 13.6 5.36 21.1-0.47 2.49-1.39 3.36-3.36 4.91-10.8 2.89-27.3 1.96-37.2-3.32-8.3-5.39-12.7-12.1-15-21.6-0.27-0.68-0.54-1.37-0.81-2.07-0.99-0.33-1.98-0.66-3-1-0.46 0.69-0.93 1.38-1.4 2.09-10.3 14.8-24.6 25.4-42.6 28.9-19.3 3.07-41.4 0.78-58-10-0.88-0.53-1.75-1.05-2.65-1.59-12-7.63-18.1-20.1-21.2-33.7-3-17-1.58-34 7.82-48.8 14.3-19.1 39.1-27.5 62-31 29.9-4.42 29.9-4.42 53-22 2.51-7.26 1.93-17-1-24-1.29-1.71-2.61-3.38-4-5v-2c-0.59-0.29-1.18-0.58-1.79-0.88-1.92-0.97-3.79-2.04-5.65-3.12-13.7-6.73-33.4-5.61-47.6-1-0.78 0.21-1.55 0.43-2.35 0.65-12.4 3.68-21.5 11-30.4 20.2-2.58 2.51-5.21 4.28-8.25 6.19-5.8-2.2-7.98-7.94-11-13-0.46-0.7-0.91-1.39-1.38-2.11-1.56-2.46-2.63-4.28-2.6-7.23 1.39-3.8 4-5.85 7.04-8.35 0.62-0.52 1.24-1.04 1.88-1.58 19.5-15.9 41.5-25 66.8-25.8z" fill="#000002"/>
<path transform="translate(196 72.6)" d="m0 0c3.98 0.27 7.91 0.37 11.9 0.29 7.36-0.08 14.6 0.89 21.9 1.8 1.51 0.18 3.02 0.34 4.53 0.47 10.3 0.96 19.2 5.02 27.7 10.8 1.27 0.68 1.27 0.68 2.56 1.38 11.4 7.57 19.2 20.9 23.4 33.6 0.22 0.63 0.43 1.26 0.66 1.91 4.93 14.8 6.4 30.6 6.34 46.1l-1 2c0.01 1.78 0.06 3.55 0.13 5.32 0.04 5.7-0.8 10.7-2.23 16.2-0.62 2.41-1.18 4.85-1.67 7.29-3.66 17.7-12.6 32-27.8 42.1-14.5 8.65-28.8 11.7-45.5 12-1.98 0.08-1.98 0.08-3.85 0.65-2.16 0.5-3.95 0.58-6.16 0.52-0.78-0.02-1.56-0.04-2.37-0.07-0.83-0.02-1.66-0.05-2.52-0.08-0.86-0.02-1.72-0.04-2.61-0.07-2.74-0.08-5.48-0.16-8.22-0.24-1.86-0.06-3.72-0.11-5.58-0.16-4.56-0.13-9.11-0.27-13.7-0.41-2.36-4.7-2.43-9.18-2.61-14.3-0.04-0.92-0.08-1.85-0.12-2.8-0.4-10.8-0.41-21.7-0.4-32.5v-6.72c-0.01-4.67 0-9.35 0-14 0.01-5.84 0-11.7 0-17.5-0.02-22.2 0.04-44.5 0.46-66.7 0.04-1.97 0.07-3.94 0.1-5.91 0.04-2.7 0.1-5.4 0.16-8.1 0.01-0.79 0.02-1.58 0.04-2.39 0.18-6.86 0.18-6.86 2.37-9.93 7.12-2.84 16.5-0.87 24-0.35z" fill="#FBFEFE"/>
<path transform="translate(1404,45)" d="m0 0c4.78 9.57 2.07 26.8 1.96 37.2-0.01 1.13-0.01 2.26-0.02 3.42-0.01 1.02-0.03 2.04-0.04 3.09-0.16 2.28-0.16 2.28 1.1 3.32 2.1 0.21 4.21 0.37 6.31 0.5 6.3 0.39 6.3 0.39 8.6 1.01 2.32 0.54 4.35 0.6 6.74 0.57 0.91 0 1.82-0.01 2.77-0.02 0.97-0.01 1.95-0.02 2.96-0.03 2.08-0.02 4.15-0.03 6.23-0.04 3.27-0.02 6.54-0.05 9.81-0.09 3.15-0.03 6.31-0.04 9.46-0.06 1.48-0.02 1.48-0.02 2.98-0.04 0.91 0 1.82-0.01 2.75-0.01 0.8-0.01 1.61-0.02 2.43-0.02 1.96 0.23 1.96 0.23 3.96 2.23 0.23 2.25 0.23 2.25 0.2 5.01-0.01 1.48-0.01 1.48-0.02 2.99-0.03 1.54-0.03 1.54-0.06 3.12 0 1.05-0.01 2.09-0.02 3.16-0.03 2.57-0.06 5.15-0.1 7.72-3.85 1.79-6.85 2.24-11.1 2.23h-3.63c-1.93-0.02-1.93-0.02-3.9-0.03-1.34-0.01-2.68-0.01-4.02-0.01-3.51-0.01-7.02-0.03-10.5-0.05-3.58-0.02-7.17-0.03-10.8-0.04-7.02-0.02-14-0.06-21.1-0.1 0.01 0.65 0.01 1.3 0.02 1.97 0.02 2.95 0.03 5.9 0.04 8.84 0.01 1.03 0.02 2.05 0.03 3.11 0 0.98 0 1.96 0.01 2.97 0 0.91 0.01 1.82 0.01 2.75-0.11 2.36-0.11 2.36-1.11 5.36-0.09 1.38-0.13 2.76-0.13 4.15 0 0.84 0 1.69-0.01 2.56 0.01 0.92 0.01 1.84 0.01 2.79v2.95c-0.01 3.23-0.01 6.46 0 9.69 0 2.24 0 4.49-0.01 6.73 0 4.71 0 9.42 0.01 14.1 0.01 6.03 0 12.1 0 18.1-0.01 4.64-0.01 9.28 0 13.9 0 2.22 0 4.45-0.01 6.67 0 3.11 0.01 6.22 0.01 9.33 0 1.37 0 1.37-0.01 2.77 0.04 9.93 1.16 20.6 7.52 28.7 9.06 8.85 18 7.98 29.9 7.85 6.19-0.21 11.2-1.37 16.7-4.29 0.8-0.38 1.6-0.76 2.42-1.16 1.88-0.9 3.73-1.87 5.58-2.84 11.1 16.8 11.1 16.8 10 24-6.65 6.98-18.8 11-28 13-2 0.04-4 0.04-6 0-0.63 0.16-1.26 0.33-1.91 0.5-3.74 0.9-7.52 0.4-11.3 0.19-0.82-0.04-1.64-0.07-2.49-0.11-15-0.8-30.4-6.27-41.1-17.1-23-28.2-13.5-85.3-12.9-119 0.01-0.7 0.02-1.4 0.03-2.12 0.12-6.94 0.24-13.9 0.39-20.8l0.12-5.88c0.04-2.42 0.09-4.83 0.15-7.25 0.02-1.07 0.04-2.14 0.06-3.25 0.03-1.4 0.03-1.4 0.06-2.83 0.03-2.51 0.03-2.51-1.08-5.36-2.73-1.37-4.87-1.08-7.93-1.03-1.18 0.01-2.37 0.03-3.6 0.04-2.51 0.03-5.02 0.07-7.53 0.12-1.19 0.01-2.39 0.02-3.62 0.03-1.09 0.02-2.18 0.03-3.31 0.05-3.12-0.22-5.26-0.71-8.01-2.21-1.35-4.04-1.22-7.77-1.25-12-0.02-0.82-0.04-1.64-0.06-2.48-0.01-0.79-0.01-1.58-0.02-2.4-0.01-0.71-0.02-1.43-0.03-2.17 0.47-2.58 1.26-3.42 3.36-4.95 7.04-1.75 14.9-1.12 22.1-1.06 1.58 0 1.58 0 3.19 0.01 2.57 0.01 5.13 0.03 7.69 0.05-0.02-1.2-0.03-2.39-0.05-3.62-0.05-4.44-0.09-8.87-0.11-13.3-0.02-1.91-0.04-3.83-0.07-5.75-0.03-2.76-0.05-5.52-0.06-8.28-0.02-0.86-0.03-1.72-0.05-2.6v-2.43c-0.01-0.7-0.01-1.41-0.02-2.13 0.48-2.48 1.39-3.34 3.36-4.88 3-0.88 3-0.88 6.56-1.56 1.25-0.25 2.49-0.49 3.77-0.74 1.82-0.35 1.82-0.35 3.67-0.7 1.92-0.39 3.83-0.79 5.75-1.19 2.16-0.44 4.05-0.81 6.25-0.81z" fill="#000002"/>
<path transform="translate(576 217)" d="m0 0c3.75 1.41 6.53 1.56 10.5 1.31 0.31 0.97 0.62 1.94 0.94 2.94 0.76 2.9 0.76 2.9 2.06 4.06l3-3c0 22-5.51 40.6-21 57-13.6 12.9-32 22.8-51 24-1.24 0.33-2.47 0.66-3.75 1-4.08 1.05-8.03 1.31-12.2 1.3-1.1 0.01-1.1 0.01-2.23 0.02-2.36 0.01-4.73 0.01-7.09-0.01h-2.45c-12-0.04-23.5-0.61-35.2-3.31-1.36-0.28-2.72-0.56-4.09-0.84-13.3-2.9-25.8-8.02-37.5-15-0.98-0.58-0.98-0.58-1.97-1.17-1.53-0.94-3.01-1.97-4.47-3.02v-2c-0.58-0.1-1.17-0.21-1.77-0.31-2.57-0.79-3.96-1.86-5.98-3.62-0.61-0.53-1.23-1.05-1.86-1.59-1.39-1.48-1.39-1.48-1.39-3.48h-2v-2h-2v-2c-0.99-0.33-1.98-0.66-3-1-1.89-2.29-1.89-2.29-3.81-5.19-0.65-0.94-1.29-1.88-1.96-2.85-1.23-2.96-1.23-2.96-0.75-5.93 1.77-3.52 3.98-6.31 6.58-9.22 1-1.14 2-2.28 2.99-3.42 0.75-0.85 0.75-0.85 1.51-1.72 2.12-2.45 4.12-5 6.13-7.54 8.96-11 8.96-11 15.3-13.1 4.88 4.63 4.88 4.63 6 8 0.64 0.29 1.28 0.58 1.94 0.88 2.78 1.52 2.91 3.24 4.06 6.12 1.32 0.69 2.66 1.35 4 2 1.44 1.19 2.85 2.4 4.25 3.63 16.4 13.4 36 17.7 56.8 17.7 1.19 0.02 2.38 0.04 3.61 0.05 11.2 0.01 21-1.41 29.3-9.36 0.74-0.95 1.49-1.9 2.25-2.87 0.58-0.7 1.15-1.41 1.75-2.13h4c-1 2-1 2-3 3 1.94-0.27 1.94-0.27 4-1 0.99-1.48 0.99-1.48 2-3 1.14 0.1 1.14 0.1 2.31 0.19 2.99 0.09 2.99 0.09 5.31-2.81 2.22-2.94 3.79-6.06 5.38-9.38 1.56-2.37 1.56-2.37 3-4h2c0.37-0.77 0.37-0.77 0.75-1.56 5.48-10.7 8.19-10.8 18.8-5.75z" fill="#009BBA"/>
<path transform="translate(1322 98.9)" d="m0 0c1.71 2.05 1.71 2.05 1.64 5.05-0.28 1.34-0.6 2.67-0.93 4-0.32 1.44-0.32 1.44-0.65 2.91-1.24 5.37-2.43 10.4-5.35 15.1-2 1-2 1-3.78 0.51-0.71-0.27-1.43-0.54-2.16-0.82-14.5-5.03-30.1-5.78-44.2 0.79-13.3 7.25-20.3 18.7-24.9 32.9-0.73 2.86-1.34 5.71-1.9 8.61-0.26 0.99-0.26 0.99-0.51 2-1.44 5.76-1.71 11.1-1.56 17 0.04 1.69 0.07 3.38 0.09 5.06 0.03 1.1 0.03 1.1 0.06 2.23-0.07 2.31-0.29 4.49-0.58 6.78-0.55 4.87-0.64 9.68-0.62 14.6v2.78c0 3.01 0.01 6.01 0.02 9.01v6.29c0.01 5.49 0.02 11 0.03 16.5 0.01 5.61 0.01 11.2 0.02 16.8 0.01 11 0.03 22 0.05 33-5.23 1.09-10.2 1.18-15.5 1.19-0.94 0.01-1.88 0.02-2.84 0.04-8.48 0.01-8.48 0.01-12.7-2.23-1.19-9.26-1.11-18.4-1.04-27.8 0.01-1.79 0.02-3.57 0.02-5.36 0.03-4.83 0.05-9.66 0.08-14.5 0.04-5.07 0.06-10.1 0.09-15.2 0.04-8.51 0.09-17 0.14-25.5 0.06-9.81 0.12-19.6 0.17-29.4 0.04-9.47 0.1-18.9 0.15-28.4 0.02-4.01 0.05-8.03 0.07-12 0.02-4.74 0.05-9.48 0.08-14.2l0.03-5.19c0.09-21.2 0.09-21.2 1.21-26.3 4.24-2.12 9.84-1.23 14.5-1.25 1.16-0.02 2.33-0.04 3.53-0.06 1.11-0.01 2.23-0.01 3.37-0.02 1.03-0.01 2.05-0.02 3.11-0.03 0.82 0.12 1.64 0.24 2.49 0.36 2.42 3.63 2.23 5.32 2.19 9.64 0 1.3-0.01 2.59-0.02 3.93-0.01 1.37-0.03 2.75-0.05 4.12-0.01 1.38-0.02 2.77-0.03 4.15-0.02 3.39-0.05 6.77-0.09 10.2h3c1.65-2.16 1.65-2.16 3.18-4.94 7.88-12.8 17.6-21.1 31.8-26.1 0.97-0.39 1.94-0.78 2.93-1.19 13.1-3.48 34.5-4.12 45.4 5.14z" fill="#000002"/>
<path transform="translate(1104,190)" d="m0 0c0.99 0.5 0.99 0.5 2 1 0.05 4.14 0.09 8.28 0.11 12.4 0.01 1.4 0.02 2.8 0.04 4.2 0.26 21.5-2.07 42-17.6 58.3-11.2 10.6-23.2 13.3-38.2 13.4-1.04 0.02-2.07 0.04-3.14 0.06-12.1 0.06-20.5-2.75-29.2-11.3-5.4-6.33-8.05-14.8-8.31-23.1 0.8-10.1 3.1-18.8 9.62-26.8 13-10.6 29.3-13 45.4-15.9 12.9-2.44 25.1-6.06 37-11.5 0.75-0.27 1.49-0.54 2.26-0.82z" fill="#FBFEFE"/>
<path transform="translate(123 25.7)" d="m0 0c0.79 0 1.58 0.01 2.4 0.01 0.83 0 1.67 0 2.53-0.01 2.78-0.01 5.57-0 8.35 0.01 1.96-0.01 3.92-0.01 5.88-0.01 4.13-0 8.27 0 12.4 0.01 5.2 0.01 10.4 0.01 15.6-0.01 82.3-0.15 82.3-0.15 116 15.3 0.99 0.44 1.97 0.88 2.99 1.33 7.76 3.65 14.4 8.29 21 13.7 0.76 0.6 1.51 1.2 2.29 1.82 5.02 4.17 8.92 8.88 12.7 14.2 0.51 0.69 1.01 1.38 1.53 2.08 12.1 17.3 21.3 40.9 22.2 62.1 0.24 2.48 0.71 4.66 1.28 7.07 1.41 6.8 1.26 13.6 1.2 20.5-0.02 2.27-0.02 4.55-0.02 6.82-0.05 20.2-0.05 20.2-3.19 23.4 0.02-1.05 0.02-1.05 0.04-2.12 0.01-0.91 0.02-1.82 0.03-2.75 0.01-1.36 0.01-1.36 0.03-2.75 0.07-2.4 0.07-2.4-1.1-4.38h2v-22c-4.22 2.48-4.22 2.48-4.61 5.92-0.04 1.08-0.09 2.16-0.14 3.27-0.05 1.09-0.11 2.17-0.17 3.29-0.02 0.83-0.05 1.66-0.08 2.52h-1c-0.12-0.93-0.24-1.86-0.37-2.81-0.44-3.33-0.44-3.33-2.63-6.19-0.38-2.32-0.71-4.66-1-7-0.2-0.84-0.41-1.69-0.62-2.56-0.38-2.44-0.38-2.44 0.09-5.19 0.54-3.3 0.7-6.4 0.72-9.75 0.01-1.08 0.03-2.16 0.04-3.28-0.24-3.39-1.14-6.01-2.23-9.22-0.18-2.12-0.31-4.25-0.37-6.37-0.37-5.93-1.62-9.56-4.63-14.6l-1-3h-2c-1.52-2.35-2.93-4.69-4.31-7.12-3.62-6.37-7.17-12.6-13.5-16.6-1.58-1.11-1.58-1.11-3.19-2.25v-2c-0.55-0.27-1.11-0.54-1.68-0.81-2.32-1.19-2.32-1.19-4.42-2.7-3.85-1.98-7.32-2.21-11.6-2.55-1.61-0.15-3.22-0.31-4.82-0.47-0.77-0.07-1.54-0.15-2.34-0.23-4.12-0.46-8.12-1.33-12.2-2.24v-2c-4.45 0.5-4.45 0.5-9 1v-2c-0.99-0.33-1.98-0.66-3-1l-2-1v-2c-4.62-1.61-9.25-2.89-14-4.06-0.68-0.17-1.37-0.35-2.08-0.53-3.95-0.98-7.89-1.8-11.9-2.41v-2c-1.48 0.5-1.48 0.5-3 1-2.48-0.34-2.48-0.34-5.18-0.94-0.91-0.19-1.81-0.39-2.74-0.59-0.68-0.15-1.37-0.31-2.08-0.47v-2c-1.54 0.25-1.54 0.25-3.12 0.5-3.36 0.43-6.5 0.5-9.88 0.5-1.48 0.5-1.48 0.5-3 1-2.87-0.04-5.69-0.14-8.56-0.31-1.17-0.05-1.17-0.05-2.36-0.11-5.83-0.34-5.83-0.34-8.08-2.58-2.07-0.64-2.07-0.64-4-1v-4c-0.57-0.29-1.15-0.58-1.75-0.87-1.36-0.69-2.73-1.38-4.08-2.1-8.2-3.89-16.5-4.46-25.5-4.28-1.63 0.02-1.63 0.02-3.3 0.03-7.07 0.1-14.1 0.41-21.1 1.1-1.13 0.06-1.13 0.06-2.28 0.12l-1-1-1 31h-1c-0.19-5.52-0.37-11-0.53-16.6-0.06-1.88-0.12-3.76-0.19-5.64-0.09-2.69-0.18-5.39-0.25-8.08-0.04-0.85-0.07-1.69-0.1-2.56-0.05-2.05 0-4.11 0.07-6.17 2.55-2.55 4.19-2.24 7.66-2.27z" fill="#0096B6"/>
<path transform="translate(480,130)" d="m0 0c19.3 3.73 38.3 7.65 57 14 1.23 0.4 2.46 0.79 3.73 1.2 21.3 7.4 35.6 21.2 45.6 41 6.88 15.9 7.26 31.6 6.69 48.8-1.49 0.5-1.49 0.5-3 1 0.07-0.69 0.14-1.37 0.22-2.08 0.09-0.9 0.18-1.8 0.28-2.73 0.09-0.9 0.19-1.79 0.28-2.71 0.26-2.56 0.26-2.56 0.22-5.48-0.99 1.32-1.98 2.64-3 4-2-6.75-2-6.75-2-9-1.01 0.23-2.02 0.45-3.06 0.69-5.72 0.45-9.29-1.82-14.2-4.44-0.89-0.41-1.78-0.82-2.69-1.25-0.99 0.5-0.99 0.5-2 1l-2-1c-0.1 0.54-0.21 1.07-0.31 1.62-0.89 3.08-2.04 5.64-3.69 8.38-2.06 0.62-2.06 0.62-4 1-0.72 1.31-1.37 2.65-2 4-0.96 1.7-1.94 3.38-2.94 5.06-0.5 0.86-1.01 1.72-1.52 2.6-1.38 2.1-2.59 3.76-4.54 5.34-0.8-0.02-1.61-0.04-2.44-0.06-3.49 0.08-4.19 1.62-6.56 4.06-2.75 0.75-2.75 0.75-5 1 3.75-3.88 3.75-3.88 6-5h-3c0.48-1.6 0.96-3.21 1.44-4.81 0.26-0.9 0.53-1.79 0.81-2.71 0.55-1.83 1.14-3.66 1.75-5.48 1.22-9.19-1.73-17.9-7.19-25.4-5.36-5-11.7-8.75-18.8-10.6l2-2-1-2c1.25-3.56 1.25-3.56 3-7 0.99-0.33 1.98-0.66 3-1 0.77-3.35 0.77-3.35 1-7-1.33-1.84-1.33-1.84-3-3v-2c-0.64-0.25-1.28-0.5-1.94-0.75-2.06-1.25-2.06-1.25-2.81-3.37-0.08-0.62-0.17-1.24-0.25-1.88h-2c-1.12-3.75-1.12-3.75 0-6h2v-3c-0.99-0.33-1.98-0.66-3-1 1.75-3.88 1.75-3.88 4-5l-2-2h7c-4.29-0.99-8.58-1.98-13-3v-2h-4v-3c-1.14-0.18-1.14-0.18-2.31-0.37-6.29-1.02-12.5-2.18-18.7-3.63l2-1v-2z" fill="#0096B6"/>
<path transform="translate(1045,408)" d="m0 0c2.5 2.25 2.5 2.25 4 5 0.58 0.93 1.15 1.86 1.75 2.81 1.64 4.17 1.68 6.71 1.25 11.2-1.44 2.69-1.44 2.69-3 5-1.25 2.34-1.25 2.34-1 5 1.38 1.85 2.92 3.5 4.5 5.19 3.82 4.6 3.97 10.7 3.8 16.4-0.48 3.83-1.61 5.6-4.3 8.36-12 8.82-30.8 6.72-45 5l-2-1c-0.05-7.9-0.08-15.8-0.1-23.7-0.01-3.67-0.03-7.34-0.05-11-0.02-3.54-0.03-7.08-0.04-10.6-0.01-2.01-0.02-4.02-0.04-6.03v-3.7c0-1.08-0.01-2.15-0.01-3.26 0.24-2.68 0.24-2.68 2.24-5.68 10.9-2.44 27.5-2.97 38 1z" fill="#010202"/>
<path transform="translate(497 22.8)" d="m0 0c2.88 0.24 5.62 0.18 8.51 0.05 24.6-0.16 53.4 11.5 71.4 28.2 2.44 2.9 2.44 2.9 4 6-0.78 5.19-3.88 8.94-7 13-1 1.32-1.99 2.64-2.98 3.96-0.5 0.67-1 1.33-1.52 2.02-2.8 3.76-5.48 7.61-8.16 11.4-2.22 3.15-4.53 5.94-7.34 8.57l-6-3v-2c-0.71-0.22-1.41-0.45-2.13-0.69-2.82-1.28-4.68-2.84-6.98-4.87-3.96-3.01-8.49-5.16-12.9-7.44l2-2c3 1 3 1 4 2v-2c-1.49-0.99-1.49-0.99-3-2l8 1v2c0.9 0.21 1.81 0.41 2.75 0.63 4 1.69 5.14 3.65 7.25 7.37-0.99 0.5-0.99 0.5-2 1v2h4l1-3 2-1-1-3c0.4-3.74 0.98-7.37 2-11-0.99-0.33-1.98-0.66-3-1-3-5.22-3-5.22-3-8l-4-2v-2c-0.58-0.29-1.16-0.58-1.75-0.87-1.12-0.56-1.12-0.56-2.25-1.13-0.71-0.33-1.41-0.66-2.13-1-1.87-1-1.87-1-3.87-3-3.97-1.87-7.66-3.34-12-4-0.09-0.93-0.17-1.85-0.25-2.81-0.87-3.68-1.7-4.21-4.75-6.19v-2l-5-1v-2h8c-1.08-0.29-2.15-0.58-3.25-0.87-3.75-1.13-3.75-1.13-5.82-2.19-2.04-1.1-2.04-1.1-4.93-1.44-3-0.5-3-0.5-4.94-1.56-3.02-1.37-5.8-1.06-9.06-0.94v2c-1.14 0.46-2.27 0.91-3.44 1.38-3.61 1.19-3.61 1.19-4.56 3.62-2.33 0.28-4.67 0.45-7 0.56-4.33-0.17-4.33-0.17-8 1.44-3.1-0.01-6.19-0.08-9.28-0.21-4.55-0.1-7.01 0.67-10.7 3.21-2.33 0.38-4.67 0.71-7 1-3.85 1.2-4.71 1.56-7 5h-2v2h-4v2c-4.75 4.42-8.31 7-15 7l-1-2-2-1c1.27-3.82 3.53-5.34 6.62-7.69 0.58-0.43 1.16-0.87 1.75-1.33 22.7-16.8 50.8-23.1 78.7-20.2z" fill="#0096B6"/>
<path transform="translate(968,416)" d="m0 0c0.99 1.32 1.98 2.64 3 4-0.68 0.8-1.36 1.61-2.06 2.44-2.37 3.55-1.92 5.91-1.25 9.99 0.72 5.91 0.54 12.2-2.19 17.5-7.79 6.42-14.4 7.89-24.5 8.06l1 3c3.43 1.45 7.03 1 10.7 0.88 6.7-0.05 13.1 0.19 18.2 4.87 2.37 5.03 3.76 9.8 2.76 15.3-1.47 4.04-3.94 5.99-7.7 7.92-5.2 1.82-10.6 3.08-16 4l-1-1c-1.33 0.01-2.67 0.06-4 0.12-5.66 0.04-11.2-0.77-15.6-4.48-2.65-2.95-4.55-5.65-4.36-9.64 0.78-1.21 1.59-2.4 2.44-3.56 3.11-4.53 2.86-8.2 2.6-13.6-0.04-2.69 0.27-4.54 1.08-7.08 0.98-4.24 0.49-6.48-0.59-10.6-1.12-4.73-1.01-8.83 0.59-13.5 3.69-5.41 8.61-7.45 14.9-8.75 1.28 0.04 2.56 0.08 3.88 0.12 4.98 0.16 8.75-1.94 13.1-4.12 1.66-0.68 3.33-1.35 5-2z" fill="#07090B"/>
<path transform="translate(597 423)" d="m0 0c3.06 1.69 3.06 1.69 4.06 4.69h2c5.65 10.2 6.97 18.5 5 30-1.88 6.15-5.56 10.6-11 14-2.94 0.87-2.94 0.87-6 1-1.85 0.15-1.85 0.15-3.75 0.31-5.19-0.03-9.58-2.22-14.2-4.31 0.01 0.62 0.01 1.24 0.02 1.88 0.02 2.81 0.03 5.62 0.04 8.43 0.01 0.98 0.02 1.95 0.03 2.96 0 0.94 0.01 1.87 0.01 2.84 0.01 0.86 0.01 1.73 0.02 2.62-0.12 2.27-0.12 2.27-1.12 5.27-3.18 0.81-3.18 0.81-7 1-3.2-2.48-4.79-4.01-5.62-8.02 0-1.12 0.01-2.24 0.01-3.39-0.01-1.28-0.02-2.55-0.03-3.87 0.01-1.38 0.03-2.76 0.05-4.14v-4.27c0-2.97 0.02-5.95 0.05-8.92 0.04-3.82 0.04-7.64 0.04-11.4-0.01-2.94 0.01-5.87 0.02-8.81 0.01-1.41 0.01-2.81 0.01-4.22 0-1.96 0.03-3.93 0.05-5.89 0.01-1.12 0.02-2.23 0.03-3.39 0.13-0.87 0.26-1.74 0.39-2.63 3.77-2.51 6.57-2.65 11-2 1.75 1.56 1.75 1.56 3 3 2.76-0.2 4.76-1.36 7.25-2.57 5.34-2.31 10.3-2.21 15.7-0.12z" fill="#020202"/>
<path transform="translate(475,423)" d="m0 0c4.77-0.12 9.54-0.21 14.3-0.27 1.62-0.03 3.24-0.06 4.86-0.11 2.34-0.06 4.67-0.09 7-0.11 0.72-0.02 1.45-0.05 2.19-0.08 2.06 0 2.06 0 5.64 0.57 2.3 2.41 2.3 2.41 4 5l3 2c0.58-0.78 1.15-1.57 1.75-2.38 3.31-3.86 5.09-4.51 10.2-4.99 1.51-0.03 3.02-0.06 4.53-0.07 1.14-0.05 1.14-0.05 2.3-0.1 3.93-0.03 5.6 0 8.61 2.69 2.95 5.29 3.85 9.95 4 16 0.02 0.66 0.04 1.33 0.06 2.01 0.06 2.1 0.11 4.2 0.15 6.31 0.04 1.4 0.08 2.81 0.12 4.22 0.17 6.11 0.28 12.2 0.26 18.3-2.6 1.3-4.19 0.93-7.06 0.62-0.9-0.09-1.8-0.18-2.73-0.27-2.21-0.35-2.21-0.35-3.21-1.35-0.15-2.46-0.23-4.9-0.28-7.36-0.03-1.11-0.03-1.11-0.06-2.25-0.06-2.38-0.11-4.76-0.16-7.14-0.07-3.12-0.14-6.24-0.22-9.36-0.01-0.71-0.03-1.43-0.04-2.17-0.09-3.68-0.38-7.13-1.24-10.7-4.75 0.62-8.87 1.36-13.1 3.75-4.79 8.03-3.05 19-2.26 28 0.26 3.14 0.33 5.21-0.68 8.24-1.98 0.03-3.96 0.05-5.94 0.06-1.1 0.01-2.2 0.03-3.34 0.04-2.72-0.1-2.72-0.1-3.72-1.1-0.15-2.65-0.23-5.28-0.28-7.94-0.02-0.79-0.04-1.59-0.06-2.41-0.08-3.41-0.14-6.83-0.21-10.2-0.05-2.49-0.11-4.97-0.17-7.46-0.01-0.78-0.03-1.56-0.04-2.36 0.24-3.59 0.24-3.59-1.24-6.58-1.61 0.06-3.21 0.2-4.81 0.38-1.31 0.13-1.31 0.13-2.65 0.27-2.25 0.31-4.35 0.78-6.54 1.35 0.01 1.23 0.02 2.46 0.04 3.73 0 1.63 0.01 3.26 0.02 4.89 0.01 0.81 0.02 1.62 0.03 2.45 0.02 4.46-0.35 8.53-1.09 12.9 0.08 1.96 0.22 3.92 0.44 5.88 0.1 0.96 0.2 1.93 0.31 2.92 0.08 0.73 0.16 1.45 0.25 2.2-2.48 1.24-4.24 1.17-7 1.19-0.89 0.01-1.77 0.03-2.69 0.04-2.31-0.23-2.31-0.23-4.31-2.23-0.25-1.94-0.25-1.94-0.24-4.33-0.01-0.89-0.01-1.78-0.01-2.71 0-0.96 0.01-1.93 0.02-2.93v-3c0-2.1 0.01-4.2 0.02-6.3 0.02-3.22 0.02-6.44 0.02-9.66 0.01-2.03 0.02-4.07 0.02-6.1 0-0.97 0-1.94 0.01-2.93 0-1.35 0-1.35 0.01-2.71 0.01-0.79 0.01-1.58 0.02-2.39 0.13-1.94 0.13-1.94 1.13-3.94z" fill="#060A0D"/>
<path transform="translate(656,425)" d="m0 0c6.7 5.91 9.31 13 10 21.8 0.49 8.24-1.2 13.8-6.58 20-4.1 3.95-8.76 6.43-14.4 7.17-9.41-0.37-15.8-2.42-22.2-9.38-5.15-5.84-5.18-12.6-5.07-20.1 0.59-6.53 2.59-11.5 6.76-16.5 8.65-6.96 21.7-9.33 31.6-3.06z" fill="#010102"/>
<path transform="translate(737,422)" d="m0 0c2.69 1.44 2.69 1.44 5 3-0.49 4.35-1.34 8.45-2.44 12.7-1.05 4.07-1.91 8.09-2.56 12.2-0.7 4.37-1.47 8.72-2.38 13.1-0.21 1.05-0.42 2.1-0.64 3.19-1.14 3.27-2.19 4.77-4.98 6.81-2.47 0.28-2.47 0.28-5.06-0.06-0.86-0.1-1.72-0.19-2.6-0.29-2.76-0.77-3.68-1.33-5.34-3.65-3.58-9.65-7-21.7-7-32h-2c-0.48 2.37-0.96 4.75-1.44 7.12-0.13 0.67-0.27 1.34-0.41 2.02-0.6 2.99-1.17 5.99-1.67 9-2 11.9-2 11.9-5.6 16.7-3.71 1.53-5.97 1.05-9.79 0.16-3.29-1.53-4.7-3.93-5.94-7.28-1.93-7.47-3.46-15-4.84-22.6-0.22-1.19-0.45-2.39-0.68-3.62-1.77-9.63-1.77-9.63-1.63-14.5 3.08-1.54 5.61-1.3 9-1 2.51 2.62 3.38 4.61 3.62 8.19 0.07 0.85 0.13 1.71 0.2 2.6 0.06 1.06 0.12 2.12 0.18 3.21 0.09 1.48 0.18 2.96 0.28 4.43 0.26 4.19 0.49 8.38 0.72 12.6 0.99 0.33 1.98 0.66 3 1 0.4-1.07 0.8-2.15 1.21-3.25 0.53-1.44 1.07-2.88 1.6-4.31 0.26-0.71 0.52-1.41 0.79-2.14 1.27-3.4 2.58-6.76 4.04-10.1 1.48-3.25 1.48-3.25 2.3-7.02 1.06-3.19 1.06-3.19 2.87-4.63 2.72-0.7 4.4-1.12 7.19-0.56 4.87 5.16 6.1 12.3 8 19 0.72 2.42 1.45 4.84 2.19 7.25 0.48 1.62 0.48 1.62 0.98 3.27 0.6 2.39 0.6 2.39 1.83 3.48 0.15-0.73 0.29-1.46 0.44-2.22 1.52-7.59 3.04-15.2 4.56-22.8 0.16-0.91 0.32-1.82 0.49-2.76 0.61-2.66 1.37-3.59 3.51-5.24 0.99-0.33 1.98-0.66 3-1z" fill="#010102"/>
<path transform="translate(447 406)" d="m0 0c1.4 0.05 2.79 0.11 4.19 0.16 3.37 0.13 6.75 0.26 10.1 0.4 2.03 4.72 2.03 4.72 1.75 7.25-0.75 1.75-0.75 1.75-2.75 2.75-2.17 0.16-4.36 0.25-6.54 0.32-1.95 0.06-1.95 0.06-3.94 0.13-1.38 0.04-2.76 0.08-4.14 0.11-1.39 0.05-2.78 0.09-4.17 0.14-3.4 0.1-6.8 0.2-10.2 0.3l-1 14c3.11 0.08 3.11 0.08 6.28 0.15 2 0.06 4 0.11 6 0.17 1.4 0.04 2.79 0.07 4.18 0.1 2 0.05 4 0.11 6 0.17 1.21 0.03 2.41 0.06 3.65 0.09 2.89 0.32 2.89 0.32 4.89 2.32-0.49 0.5-0.49 0.5-1 1-0.04 2.34-0.04 4.67 0 7-1.97 0.09-1.97 0.09-3.98 0.19-1.73 0.08-3.47 0.17-5.21 0.25-0.86 0.04-1.72 0.08-2.61 0.12-4.18 0.21-8.1 0.58-12.2 1.44-1.66 0.04-3.33 0.05-5 0-0.03 1.52-0.04 3.04-0.06 4.56-0.01 0.85-0.02 1.7-0.04 2.57 0.12 3.34 0.61 6.57 1.1 9.87 0.9-0.03 1.8-0.07 2.72-0.11 3.33-0.12 6.66-0.25 9.99-0.37 1.44-0.05 2.88-0.11 4.32-0.17 2.07-0.08 4.14-0.15 6.21-0.23 1.25-0.04 2.5-0.09 3.78-0.14 2.98 0.02 2.98 0.02 4.98 1.02v8c-14.4 3.07-29.4 2.11-44 2v-2h-2c-0.04-7.77-0.08-15.5-0.1-23.3-0.01-3.61-0.03-7.22-0.05-10.8-0.02-3.48-0.03-6.96-0.04-10.4 0-1.98-0.02-3.95-0.03-5.93v-3.64c-0.01-1.06-0.01-2.12-0.02-3.21 0.24-2.64 0.24-2.64 2.24-5.64 8.46-2.17 18.1-0.92 26.7-0.56z" fill="#06080A"/>
<path transform="translate(785 425)" d="m0 0c3.15 2.57 4.93 5.8 6.72 9.4 0.43 0.83 0.87 1.65 1.31 2.5 1.25 4.56 1.19 9-0.31 13.5-10.6 1.44-20.4 2.39-31 1 0.22 3.86 0.52 6.34 2.81 9.5 5.57 2.62 11.8 1.62 17.6-0.28 0.68-0.28 1.36-0.56 2.06-0.84 3.58-1.38 5-1.6 8.56-0.38-1.15 4.37-2.13 8.04-5.19 11.4-6.84 3.8-14.9 4.93-22.4 2.84-7.89-2.89-12-6.87-15.6-14.4-3.01-7.04-2.57-14.4-0.3-21.6 2.79-6.87 7.58-11.2 14.3-14.2 7.14-2.24 14.9-2.24 21.5 1.54z" fill="#06080A"/>
<path transform="translate(1288 423)" d="m0 0c6.21 4.58 9.21 8.79 10.4 16.5 0.31 3.19 0.37 6.25 0.23 9.45-9.41 4.25-20.9 3.15-31 3 0.36 4.35 0.36 4.35 2.76 7.85 6.96 3.56 15.8 0.77 22.8-1.29 2.43-0.56 2.43-0.56 4.43 0.44 0.34 3.63 0.29 5.52-1.62 8.68-5.33 5.19-10.8 6.05-18 6.44-6.82-0.24-13-2.19-17.8-7.18-4.7-6.38-7.44-14.4-7.08-22.3 1.27-6.47 4.48-13.2 9.45-17.7 8.16-5.17 16-6.87 25.4-3.88z" fill="#010102"/>
<path transform="translate(1437,425)" d="m0 0c4.92 4.85 7.46 10.1 8 17-0.23 6.23-0.23 6.23-2 8-1.6 0.21-3.21 0.37-4.81 0.5-3.56 0.28-3.56 0.28-7.03 1.03-3.28 0.72-6.57 0.57-9.91 0.53-0.7 0-1.39-0.01-2.11-0.01-1.72-0.01-3.43-0.03-5.14-0.05l-1 3c1.79 3.68 1.79 3.68 5 6 7.62 0.75 13.8-0.18 20.8-3.12 2.18-0.88 2.18-0.88 4.18-0.88 0.8 2.34 1.11 3.64 0.4 6.04-2.93 5.8-5.45 7.78-11.5 10.2-9.21 1.78-17.1-0.13-24.9-5.25-4.85-4.47-6.61-10.5-7.32-16.9-0.32-8.44 1.65-14.9 6.13-22 8.15-7.91 21.3-10.2 31.2-4.12z" fill="#010102"/>
<path transform="translate(1205 422)" d="m0 0c2.89 1.83 3.44 3.27 4.38 6.5 1.31-0.33 2.64-0.66 4-1v-4c16.8-3.85 16.8-3.85 25 1 4.32 6.2 4.06 13.4 3.96 20.7 0.04 2.37 0.26 4.66 0.54 7.02 0.72 6.42 0.58 12.8 0.5 19.3-4.23 1.13-8.07 1.95-12.2-0.05-2.69-2.84-2.43-5.64-2.42-9.36-0.01-0.72-0.03-1.44-0.04-2.18-0.04-2.3-0.06-4.61-0.07-6.91-0.03-2.3-0.07-4.61-0.1-6.91-0.03-1.43-0.04-2.86-0.05-4.3-0.03-3.03-0.2-5.38-1.16-8.29-5.92-0.31-9.82 0.04-15 3-1.2 3.12-1.2 6.33-1.32 9.65-0.04 1.09-0.09 2.17-0.13 3.3s-0.08 2.26-0.12 3.43c-0.04 1.12-0.08 2.24-0.13 3.4-0.19 5.08-0.33 10.1-0.3 15.2-3.83 1.38-7.08 0.74-11 0-3.21-3.2-2.03-11.8-2.05-16.1 0.01-3.83 0.08-7.65 0.18-11.5 0.05-2.4 0.08-4.81 0.11-7.21 0.03-1.54 0.07-3.07 0.11-4.61 0-0.71 0.01-1.43 0.01-2.17 0.12-3.25 0.24-4.97 2.51-7.39 2.13-1 2.13-1 4.75-0.5z" fill="#020202"/>
<path transform="translate(872,423)" d="m0 0c8.04-0.79 8.04-0.79 12.1 2.5 0.64 0.82 1.28 1.65 1.94 2.5 0.65-0.81 1.3-1.62 1.97-2.46 3.97-3.33 6.52-3.33 11.5-3.23 0.75-0.03 1.49-0.05 2.26-0.08 4.41 0.02 5.81 0.36 9.15 3.5 3.16 4.95 4.33 8.66 4.5 14.5 0.06 1.8 0.06 1.8 0.12 3.64 0.03 1.25 0.06 2.5 0.09 3.79 0.06 1.84 0.06 1.84 0.12 3.72 0.21 6.87 0.31 13.7 0.26 20.6-4.51 1.37-7.62 0.6-12-1-1.5-3.01-1.07-5.74-1.03-9.09 0.02-1.44 0.03-2.88 0.04-4.31 0.02-2.27 0.05-4.54 0.09-6.81 0.03-2.19 0.04-4.38 0.06-6.57 0.02-1.31 0.03-2.62 0.05-3.97 0.05-3.4 0.05-3.4-2.21-6.25-5.6 0.42-10.7 0.92-16 3-0.84 4.37-1.12 8.48-1.1 12.9 0.01 1.29 0.01 2.58 0.01 3.91 0.01 1.34 0.02 2.69 0.03 4.04 0 1.36 0.01 2.73 0.01 4.1 0.01 3.34 0.03 6.68 0.05 10-5.04 1.01-8.24 0.97-13-1 0.01-1.18 0.02-2.35 0.04-3.57 0.06-10.6-0.16-21.2-0.86-31.8-0.48-8.48-0.48-8.48 1.82-12.6z" fill="#060709"/>
<path transform="translate(1101,422)" d="m0 0c5.63-0.71 5.63-0.71 8 0 3.94 4.64 3.39 9.58 3.29 15.3 0 0.99-0.01 1.99-0.01 3.01-0.02 3.16-0.05 6.31-0.09 9.47-0.02 2.15-0.03 4.29-0.04 6.44-0.04 5.25-0.09 10.5-0.15 15.8-4.57 1.52-8.91 0.6-13.6 0.16-2.9-0.14-4.64 0.04-7.35 0.84-6.83 0.54-12.9-0.06-18.8-3.75-5.72-5.88-5.24-15.2-5.16-23 0.07-3.11 0.17-6.21 0.28-9.31 0.04-1.03 0.07-2.05 0.11-3.11 0.04-0.96 0.09-1.93 0.13-2.93 0.04-0.87 0.08-1.74 0.12-2.64 0.33-2.26 0.33-2.26 2.33-5.26 2.16-0.29 2.16-0.29 4.62-0.19 0.82 0.03 1.64 0.06 2.48 0.08 0.94 0.06 0.94 0.06 1.9 0.11 1.06 2.38 1.06 2.38 2 5l-1 2c-0.1 1.34-0.13 2.69-0.13 4.04 0 0.81-0.01 1.62-0.01 2.45 0.01 0.85 0.01 1.7 0.02 2.57-0.01 0.82-0.01 1.65-0.02 2.49 0.01 4.14 0.13 8.26 0.46 12.4 0.06 0.71 0.11 1.43 0.17 2.16 0.65 2.43 1.54 3.37 3.51 4.91 4.02 1.06 6.39 1.19 10.4-0.06 2.87-1.69 2.87-1.69 3.27-4.65 0.35-3.31 0.53-6.56 0.6-9.9 0.03-1.23 0.06-2.46 0.1-3.72 0.06-2.58 0.11-5.17 0.17-7.75 0.03-1.22 0.07-2.45 0.1-3.71 0.03-1.12 0.05-2.24 0.08-3.39 0.3-2.82 0.3-2.82 2.3-5.82z" fill="#010202"/>
<path transform="translate(1024 406)" d="m0 0c0.92 0 1.84 0.01 2.79 0.01 2.26 0.02 4.52 0.03 6.77 0.05v2h-4c0.25 0.9 0.25 0.9 0.5 1.82 0.49 2.12 0.5 4 0.5 6.18-5.94 0.5-5.94 0.5-12 1-0.02 1.74-0.04 3.47-0.06 5.25-0.01 0.98-0.02 1.95-0.04 2.96 0.01 3.03 0.01 3.03 1.1 6.79 2.97 0.66 5.94 1.32 9 2l-2 1c1.93 2.44 3.8 4.8 6 7-1.58 0.34-3.16 0.67-4.75 1-1.32 0.28-1.32 0.28-2.67 0.56-2.58 0.44-2.58 0.44-6.58 0.44-0.08 2.63-0.14 5.25-0.18 7.88-0.03 0.74-0.06 1.49-0.08 2.26-0.07 2.42-0.07 2.42 0.26 5.86l3 2v2c1.49 0.5 1.49 0.5 3 1l-1 2h5c-0.99 0.5-0.99 0.5-2 1v4c-3.29 0.03-6.58 0.05-9.87 0.06-0.94 0.01-1.88 0.02-2.84 0.03-1.35 0.01-1.35 0.01-2.72 0.01-0.82 0.01-1.65 0.01-2.5 0.02-2.07-0.12-2.07-0.12-4.07-1.12-0.04-7.9-0.08-15.8-0.1-23.7-0.01-3.67-0.03-7.34-0.05-11-0.02-3.54-0.03-7.08-0.04-10.6 0-2.01-0.02-4.02-0.03-6.03v-3.7c-0.01-1.07-0.01-2.15-0.02-3.26 0.24-2.68 0.24-2.68 2.24-5.68 5.75-1.32 11.6-1.11 17.4-1.06z" fill="#010102"/>
<path transform="translate(1386 424)" d="m0 0c2.51 2.59 2.43 5.19 2.62 8.68-1 1-1 1-4.68 1.12-2.61-0.02-4.86-0.22-7.44-0.69-3.21-0.48-5.72-0.11-8.88 0.57-0.32 1.32-0.66 2.64-1 4 4.19 1.95 8.13 3.31 12.6 4.37 5.56 1.49 8.4 3.37 11.4 8.38 1.94 4.01 2.13 7.03 1.12 11.4-1.65 4.56-3.82 7.2-7.88 9.82-7.19 3.3-14.9 2.27-22.3 0.06-4.15-1.86-6.21-3.78-8-8-0.23-2.73-0.13-5.26 0-8 3.77 0.58 6.51 1.68 9.82 3.56 4.78 2.47 7.85 3 13.2 2.44 1.49-0.5 1.49-0.5 3-1 0.33-0.99 0.67-1.98 1-3-4.44-3.88-10.1-5.72-15.4-7.96-7.73-3.31-7.73-3.31-10.6-7.04-0.94-6.04 1.02-10.8 4-16 6.18-6.6 19.9-6.87 27.4-2.68z" fill="#010102"/>
<path transform="translate(1138 423)" d="m0 0c1.4 0.01 1.4 0.01 2.83 0.02 1.45 0.02 1.45 0.02 2.94 0.05 0.98 0.01 1.96 0.02 2.98 0.03 2.42 0.02 4.84 0.05 7.27 0.1 2.28 4.3 3.44 7.07 3 12l-1 2c-0.55-0.21-1.09-0.41-1.66-0.63-6.65-2.37-13.4-4.44-20.3-2.37 0.18 1.96 0.18 1.96 1 4 1.8 1.11 1.8 1.11 4.07 1.74 0.84 0.28 1.67 0.56 2.52 0.85 1.32 0.42 1.32 0.42 2.66 0.84 7.01 2.24 11.6 4.21 16.1 10.4 1.38 4.39 1.57 8.24-0.33 12.4-2.08 3.45-3.58 5.51-6.98 7.78-3.2 0.62-6.44 0.74-9.69 0.93-0.88 0.08-1.75 0.16-2.65 0.25-6.47 0.39-10.7-0.89-15.7-5.18-1.61-3.22-1.06-6.44-1-10 1.78-0.63 1.78-0.63 4-1 1.7 0.95 1.7 0.95 3.43 1.93 5.56 3.07 11.4 2.4 17.6 2.07v-5c-0.54-0.17-1.07-0.34-1.62-0.52-17.1-5.56-17.1-5.56-22.4-9.48-1.69-5.05-2.09-10.4-0.03-15.4 3.36-5.63 6.28-7.91 13-7.83z" fill="#010102"/>
<path transform="translate(1474 423)" d="m0 0c1.28-0.04 1.28-0.04 2.59-0.07 3.94-0.02 6.21-0.02 9.55 2.2 1.36 2.25 1.36 2.25 1.31 4.39-0.65 1.95-1.3 3.9-1.95 5.86-6.55-0.9-6.55-0.9-9.5-1.57-3.19-0.56-6.27-0.5-9.5-0.43-0.66 1.31-1.32 2.63-2 4 5.6 2.3 11.2 4.46 17 6.19 5.51 2.21 7.7 5.99 10.2 11.2 1.33 4.07 0.72 6.86-1.14 10.6-2.65 4.25-5.33 6.2-10 8-7.85 1.72-15.1 0.5-22.6-2.38-2.68-1.79-3.66-2.51-4.44-5.62 0.38-3.76 0.38-3.76 1-7 3-1 3-1 5.2-0.04 0.82 0.46 1.64 0.93 2.49 1.41 4.63 2.42 8.07 3.63 13.3 3.63 2.03-1.28 2.03-1.28 3-3-0.35-2.44-0.35-2.44-2-5-4.29-2.64-9.09-4.05-13.9-5.5-2.82-0.91-3.98-1.37-6.12-3.5-2.11-4.23-2.88-8.35-2-13 4.78-8.9 9.93-10.4 19.5-10.4z" fill="#010102"/>
<path transform="translate(115,179)" d="m0 0h2l1 18 8 2c2.01 6.26 2.01 9.74 0 16-3-2-3-2-4-5-0.03 0.56-0.05 1.12-0.08 1.7-0.11 2.54-0.23 5.07-0.36 7.61-0.04 0.88-0.08 1.76-0.12 2.67-0.04 0.85-0.08 1.7-0.12 2.57-0.04 0.78-0.08 1.56-0.11 2.37-0.21 2.08-0.21 2.08-1.21 5.08h2l2-2c8.24 8.24 4.8 35.2 5 46-0.01 1.7-0.02 3.41-0.04 5.11 0.04 4.01 0.87 7.08 2.04 10.9 0.19 2.88 0.19 2.88 0 5-1 1-1 1-3.5 1.1-1.01-0.01-2.02-0.03-3.06-0.04-1.52-0.01-1.52-0.01-3.07-0.02-0.78-0.02-1.56-0.03-2.37-0.04l-1-7v7c1.98 0.33 3.96 0.66 6 1v1c-6.75 0.12-6.75 0.12-9-1v-120z" fill="#0096B6"/>
<path transform="translate(1340,424)" d="m0 0c2.57 3 2.17 6.18 2 10-2.66 1.02-3.79 1.08-6.5 0.06-5.14-1.56-10.2-1.22-15.5-1.06l-1 6c4.05 1.23 7.94 2.15 12.1 2.81 4.7 0.94 6.96 2.24 9.88 6.19 3.5 5.39 4.74 9.59 4 16-1.78 4.22-3.86 6.11-8 8-8.38 3.06-16.4 1.74-24.6-1.38-2.63-1.79-3.61-2.54-4.38-5.62 0.52-6.04 0.52-6.04 2-9 2.33 0.87 4.58 1.75 6.73 3.02 5.76 3.35 10.7 3.41 17.3 2.98-0.43-2.93-0.43-2.93-2-6-2.63-1.48-4.89-2.54-7.69-3.56-5.75-2.2-10.5-4.5-15.3-8.44-1.81-5.33-1.2-8.23 1.12-13.3 2.1-3.77 3.7-6.16 7.88-7.69 7.49-1.83 14.8-1.49 22 1z" fill="#010102"/>
<path transform="translate(169,78)" d="m0 0h1c0.05 19.2 0.08 38.5 0.1 57.7 0.01 8.94 0.03 17.9 0.05 26.8 0.02 7.79 0.03 15.6 0.04 23.4 0 4.12 0.01 8.25 0.02 12.4 0.11 33 0.11 33-2.21 47.7h-2v3c-1.94-0.31-1.94-0.31-4-1l-1-3h-2v-5h-2c-2.67-8.13-3.23-15.4-2.81-23.9 0.06-1.33 0.06-1.33 0.13-2.69 0.79-12.6 0.79-12.6 4.18-15.9 2.53-2.64 3.04-6.04 3.5-9.56-0.26-2.34-0.59-4.68-1-7-0.29-5.76 0.17-11.3 1-17 2 1 2 1 4 4 0.14-5.1 0.29-10.2 0.43-15.3 0.05-1.74 0.09-3.47 0.14-5.2 0.07-2.51 0.14-5.01 0.21-7.52 0.02-0.76 0.04-1.52 0.07-2.31 0.12-4.64 0.14-9.27 0.06-13.9 0.09-1.75 0.09-1.75 1.09-2.75 0.12-1.35 0.18-2.71 0.21-4.06 0.02-0.86 0.04-1.72 0.06-2.61 0.01-0.93 0.03-1.87 0.05-2.83 0.03-1.43 0.03-1.43 0.06-2.89 0.06-3.06 0.12-6.12 0.18-9.17 0.05-2.07 0.09-4.14 0.13-6.2 0.11-5.08 0.21-10.2 0.31-15.2z" fill="#0096B6"/>
<path transform="translate(495,423)" d="m0 0c2.25-0.14 4.5-0.23 6.75-0.31 1.25-0.06 2.51-0.12 3.8-0.18 3.45 0.49 3.45 0.49 5.72 2.88 0.57 0.86 1.14 1.72 1.73 2.61l3 2c0.58-0.78 1.15-1.57 1.75-2.38 3.31-3.86 5.09-4.51 10.2-4.99 1.51-0.03 3.02-0.06 4.53-0.07 1.14-0.05 1.14-0.05 2.3-0.1 3.93-0.03 5.6 0 8.61 2.69 2.95 5.29 3.85 9.95 4 16 0.02 0.66 0.04 1.33 0.06 2.01 0.06 2.1 0.11 4.2 0.15 6.31 0.04 1.4 0.08 2.81 0.12 4.22 0.17 6.11 0.28 12.2 0.26 18.3-2.6 1.3-4.19 0.93-7.06 0.62-0.9-0.09-1.8-0.18-2.73-0.27-2.21-0.35-2.21-0.35-3.21-1.35-0.15-2.46-0.23-4.9-0.28-7.36-0.03-1.11-0.03-1.11-0.06-2.25-0.06-2.38-0.11-4.76-0.16-7.14-0.07-3.12-0.14-6.24-0.22-9.36-0.01-0.71-0.03-1.43-0.04-2.17-0.09-3.68-0.38-7.13-1.24-10.7-4.87 0.63-8.91 1.29-13.1 4-2.71 4.19-2.84 8.09-2.94 13-4.33-3.47-4.89-6.85-6-12-1.05-3.66-1.05-3.66-3.69-6.19-3.07-1.08-6.17-1.96-9.31-2.81l1-4-4 1v-2z" fill="#020202"/>
<path transform="translate(291,128)" d="m0 0c0.62 0.68 0.62 0.68 1.25 1.38 1.66 1.74 1.66 1.74 3.87 2.43 1.88 1.19 1.88 1.19 2.63 3.57 0.36 5.21 0.33 10.4 0.25 15.6l-2-2v-4h-2l1 8c0.62 0.1 1.24 0.21 1.88 0.31 2.12 0.69 2.12 0.69 4.12 3.69h2v3c1.49 0.5 1.49 0.5 3 1l-2 2c-0.46 2.43-0.46 2.43-0.62 5.12-0.08 0.92-0.15 1.83-0.23 2.76-0.05 0.7-0.1 1.4-0.15 2.12l-2-1-1 5h3c0.51 12.4-1.94 24.3-6 36h-2c-0.27 0.72-0.54 1.44-0.81 2.19-2.24 5.3-5.03 8.85-9.19 12.8-0.85 0.95-1.69 1.9-2.56 2.88-2.44 2.12-2.44 2.12-4.69 2.12-1.75-1-1.75-1-2.75-4 1.51-2.75 1.51-2.75 3.69-6 7.21-11.3 9.52-23 11.9-36 0.42-2 0.42-2 1.42-5 0.07-2.77 0-5.53-0.06-8.31 0.06-2.69 0.06-2.69 0.58-4.47 0.63-2.89 0.42-5.44 0.21-8.38-0.08-1.21-0.17-2.41-0.26-3.66s-0.18-2.51-0.28-3.8c-0.09-1.24-0.17-2.47-0.25-3.74-0.47-6.42-1.16-12.6-2.64-18.9-0.1-0.59-0.2-1.17-0.3-1.78l1-1z" fill="#0096B6"/>
<path transform="translate(808 423)" d="m0 0c0.96 0.02 1.92 0.05 2.91 0.07 1.44 0.03 1.44 0.03 2.9 0.05 0.9 0.03 1.8 0.05 2.73 0.08h4 14c0.69 4.02 1.17 7.08 0 11-5.86 1.59-10.8 2.3-17 3v34c-3.98 1.99-4.68 2.22-8.75 1.62-0.8-0.11-1.6-0.22-2.42-0.34-0.91-0.14-0.91-0.14-1.83-0.28-1.25-4.86-1.16-9.64-1.17-14.6 0-1.38 0-1.38-0.01-2.79 0-1.94-0.01-3.88-0.01-5.82 0-2.97-0.02-5.95-0.04-8.92v-5.66c-0.01-0.89-0.02-1.78-0.02-2.7 0-0.83 0-1.65 0.01-2.5-0.01-0.73-0.01-1.45-0.01-2.2 0.43-3.1 1.73-3.76 4.71-4z" fill="#020202"/>
<path transform="translate(1045 408)" d="m0 0c3.96 3.54 6.73 7.99 7.73 13.2 0.18 4.48-0.91 7.21-3.42 10.8-0.16 0.75-0.33 1.49-0.5 2.25-0.16 0.58-0.33 1.16-0.5 1.75-0.99 0.33-1.98 0.66-3 1-0.14 0.64-0.29 1.28-0.43 1.94-0.57 2.06-0.57 2.06-2.29 3.23-2.81 1.03-4.42 0.8-7.34 0.21-1.29-0.24-1.29-0.24-2.6-0.48-2.85-1.1-3.81-2.28-5.34-4.9v-2l-8-3c-0.72-5.32-1.22-9.7 0-15 3.62-1.01 7.28-1.5 11-2-0.28-1.17-0.28-1.17-0.56-2.37-0.44-2.63-0.44-2.63 0.56-4.63 4.63-1.85 10-1.68 14.7-0.06z" fill="#020202"/>
<path transform="translate(737,422)" d="m0 0c2.69 1.44 2.69 1.44 5 3-0.49 4.35-1.34 8.45-2.44 12.7-1.05 4.07-1.91 8.09-2.56 12.2-0.7 4.37-1.47 8.72-2.38 13.1-0.21 1.05-0.42 2.1-0.64 3.19-1.14 3.27-2.19 4.77-4.98 6.81-2.47 0.28-2.47 0.28-5.06-0.06-0.86-0.1-1.72-0.19-2.6-0.29-2.76-0.77-3.68-1.33-5.34-3.65-8.6-23.2-8.6-23.2-6-31 1.18 0.53 1.18 0.53 2.38 1.06 0.86 0.31 1.73 0.62 2.62 0.94l2-1v3h3c0.28 0.93 0.55 1.85 0.84 2.81 0.36 1.2 0.72 2.39 1.1 3.63 0.36 1.19 0.72 2.39 1.09 3.62 0.68 2.8 0.68 2.8 1.97 3.94 0.15-0.73 0.29-1.46 0.44-2.22 1.52-7.59 3.04-15.2 4.56-22.8 0.16-0.91 0.32-1.82 0.49-2.76 0.61-2.66 1.37-3.59 3.51-5.24 0.99-0.33 1.98-0.66 3-1z" fill="#020202"/>
<path transform="translate(533,432)" d="m0 0c1.99 4.16 2.26 7.57 2.27 12.2v2.05c0 1.41 0 2.83-0.01 4.25-0.01 2.17 0 4.33 0.01 6.5v4.14c-0.01 1.25-0.01 2.5-0.01 3.79-0.26 3.11-0.26 3.11-2.26 6.11-4.75 2.97-9.73 1.76-15 1-2.62-9.54-3.58-23.4-1-33 4.2-6.95 8.45-7.25 16-7z" fill="#FBFDFF"/>
<path transform="translate(899 423)" d="m0 0c0.76-0.05 1.52-0.09 2.3-0.14 4.49-0.09 5.88 0.11 9.31 3.29 3.14 4.96 4.32 8.67 4.49 14.6 0.04 1.2 0.08 2.4 0.12 3.64 0.03 1.25 0.06 2.5 0.09 3.78 0.04 1.23 0.08 2.46 0.12 3.73 0.2 6.86 0.31 13.7 0.26 20.6-4.51 1.36-7.62 0.6-12-1-1.51-3.01-1.08-5.75-1.03-9.09 0.01-1.44 0.03-2.88 0.04-4.32 0.02-2.27 0.05-4.54 0.08-6.8 0.03-2.19 0.05-4.38 0.07-6.57 0.01-1.31 0.03-2.62 0.05-3.98 0.05-3.39 0.05-3.39-2.21-6.24-2.57-0.73-2.57-0.73-5-1l4-3h-2v-2l-4-1 1-1c-1.98 0.33-3.96 0.66-6 1v-3c3.24-1.63 6.75-1.35 10.3-1.44z" fill="#020202"/>
<path transform="translate(848 422)" d="m0 0c0.79 0.08 1.59 0.16 2.41 0.24 0.79 0.07 1.58 0.13 2.4 0.2 2.1 0.68 2.1 0.68 3.21 2.43 0.97 2.45 1.13 4.19 1.13 6.82 0 0.89 0.01 1.79 0.01 2.72-0.01 0.96-0.02 1.92-0.02 2.91v3l-0.03 6.27c-0.02 3.21-0.02 6.43-0.02 9.64 0 2.03-0.01 4.06-0.02 6.09v2.93c-0.01 0.88-0.01 1.77-0.02 2.69 0 0.78-0.01 1.57-0.01 2.38-0.13 1.8-0.13 1.8-1.13 2.8-1.96 0.17-1.96 0.17-4.38 0.18-1.19 0.03-1.19 0.03-2.4 0.05-2.22-0.23-2.22-0.23-5.22-2.23-0.96-2.88-1.13-4.7-1.14-7.69v-2.79c0-0.98 0.01-1.95 0.01-2.96 0-1 0.01-1.99 0.01-3.02 0.03-6.03 0.27-12 0.9-18 0.3-3.54 0.2-7.04 0.06-10.6 0.24-2.95 1.32-3.92 4.25-4.08z" fill="#060809"/>
<path transform="translate(1177 422)" d="m0 0c0.68-0.02 1.36-0.04 2.06-0.06 1.94 0.5 1.94 0.5 3.67 2.08 1.72 3.28 1.6 5.8 1.52 9.48-0.02 1.23-0.03 2.46-0.05 3.72-0.2 3.22-0.2 3.22-1.2 6.22-0.08 2.21-0.11 4.42-0.1 6.63 0.01 1.3 0.01 2.6 0.01 3.94l0.03 4.11c0 1.39 0.01 2.77 0.01 4.16 0.01 3.38 0.03 6.77 0.05 10.2-4.75 0.8-7.64 1.24-12-1-0.9-5.41-1.17-10.6-1.2-16.1-0.01-0.85-0.01-1.7-0.02-2.57-0.01-1.79-0.02-3.57-0.02-5.35-0.01-2.73-0.04-5.46-0.07-8.19-0.01-1.73-0.01-3.47-0.02-5.2-0.01-0.82-0.02-1.64-0.04-2.48 0.03-5.68 0.03-5.68 1.77-7.81 1.98-1.6 3.08-1.73 5.6-1.73z" fill="#010102"/>
<path transform="translate(648,433)" d="m0 0c4.31 3.83 5.4 8.45 6 14 0.14 4.77-0.29 8.59-3.25 12.4-4.16 3.88-4.16 3.88-7.75 4.56-5.54-0.89-8.39-2.75-12-7-1.46-2.91-1.21-5.51-1.25-8.75-0.03-1.21-0.05-2.42-0.08-3.67 0.36-3.95 1.16-6.28 3.33-9.58 4.5-2.8 9.99-3.86 15-2z" fill="#FBFEFE"/>
<path transform="translate(592,435)" d="m0 0c3.47 3.47 4.49 5.94 4.5 10.9-0.02 0.7-0.04 1.4-0.06 2.12 0 0.7 0.01 1.4 0.02 2.12-0.06 4.44-0.73 7.35-3.46 10.9-3.92 1.96-8.72 1.36-13 1-3.08-1.38-4.64-2.64-7-5-0.23-2.81-0.32-5.5-0.31-8.31-0.02-0.76-0.03-1.52-0.05-2.31-0.01-4.62 0.41-7.6 3.36-11.4 5.15-3.68 11.1-3.98 16 0z" fill="#FBFEFE"/>
<path transform="translate(1204 422)" d="m0 0c4.35 2.94 5.86 7.53 7.31 12.4 0.19 2.25 0.19 2.25-0.28 4.04-0.64 2.64-0.75 5.13-0.85 7.86-0.04 1.08-0.08 2.17-0.12 3.29-0.04 1.13-0.08 2.27-0.12 3.43-0.05 1.13-0.09 2.25-0.13 3.41-0.19 5.08-0.33 10.1-0.31 15.2-3.82 1.37-7.08 0.74-11 0-3.2-3.2-2.03-11.8-2.05-16.1 0.01-3.83 0.08-7.65 0.18-11.5 0.06-2.41 0.09-4.81 0.11-7.21 0.04-1.54 0.08-3.07 0.12-4.61 0-0.72 0-1.43 0.01-2.17 0.11-3.25 0.23-4.97 2.51-7.38 2.12-1.01 2.12-1.01 4.62-0.7z" fill="#000002"/>
<path transform="translate(463,417)" d="m0 0-1 3c0.31 0.91 0.62 1.81 0.94 2.75 1.17 3.59 1.21 6.5 1.06 10.2l-4-1-1 2c-4.46-0.14-8.92-0.29-13.4-0.44-1.27-0.04-2.54-0.08-3.85-0.12-1.21-0.04-2.42-0.08-3.67-0.12-1.12-0.04-2.24-0.08-3.39-0.11-2.71-0.21-2.71-0.21-4.71-1.21-0.08-1.94-0.14-3.87-0.19-5.81-0.03-1.08-0.07-2.16-0.1-3.27 0.29-2.92 0.29-2.92 1.55-4.57 2.08-1.62 3.19-1.78 5.8-1.9 0.79-0.04 1.59-0.08 2.4-0.12 0.84-0.03 1.68-0.05 2.54-0.08 0.85-0.04 1.7-0.07 2.58-0.11 6.2-0.22 12.3-0.04 18.4 0.86z" fill="#FBFDFF"/>
<path transform="translate(783 424)" d="m0 0c4.34 2.5 6.44 6.11 8.62 10.5 0.44 0.82 0.87 1.65 1.32 2.5 1.25 4.55 1.19 9-0.32 13.5-4.95 0.33-9.89 0.66-15 1 3-2 3-2 5-3 0.34-0.99 0.66-1.98 1-3-1.32-0.66-2.63-1.32-4-2 0.66-0.33 1.33-0.66 2-1-0.29-4.52-0.29-4.52-3.12-7.88-4.42-1.73-8.1-1.52-12.7-0.5-3.09 1.95-3.35 3.9-4.19 7.38-0.2 0.78-0.41 1.57-0.62 2.38-0.12 0.53-0.25 1.07-0.38 1.62v-2h-2c-1-3-1-3 0.13-5.88 1.27-3.13 1.27-3.13-0.56-5.81-0.78-1.14-0.78-1.14-1.57-2.31 1-3 1-3 2.9-4.17 7.78-3.2 15.5-4.7 23.5-1.33z" fill="#010102"/>
<path transform="translate(1284,422)" d="m0 0c2.69 2.5 2.69 2.5 4 5-1.88 4.88-1.88 4.88-3 6 0.49 0.74 0.99 1.49 1.5 2.25 1.5 2.75 1.5 2.75 1.5 6.75-5.94 0.33-11.9 0.66-18 1l-1-3c-6.43 0.5-6.43 0.5-13 1 1.09-6.52 2.57-9.7 7.31-14.2 6.59-4.44 12.7-6.22 20.7-4.81z" fill="#020202"/>
<path transform="translate(1039,443)" d="m0 0c3.44 2.78 4.21 5.69 5 10-0.62 3.81-0.62 3.81-2 7-3.28 2.25-6.54 2.41-10.4 2.69-1.11 0.08-2.22 0.17-3.37 0.26-2.96 0.05-5.35-0.12-8.19-0.95-2-2-2-2-2.23-4.43 0.01-0.95 0.03-1.9 0.04-2.88 0.01-0.95 0.02-1.89 0.02-2.87 0.16-2.69 0.57-5.19 1.17-7.82 13.4-3.04 13.4-3.04 20-1z" fill="#FBFEFF"/>
<path transform="translate(1289 424)" d="m0 0c5.11 3.29 7.89 7.23 9.18 13.2 0.62 4.04 0.81 7.92 0.63 12-9.03 4.08-19.4 3.26-29 2l-2-7c2.14-2.13 6.48-1.78 9.44-2.12 0.79-0.1 1.58-0.2 2.39-0.3 5.92-0.7 5.92-0.7 8.17 0.42-0.45-1.29-0.91-2.58-1.38-3.87-0.25-0.72-0.51-1.44-0.77-2.18-0.79-2.13-0.79-2.13-2.85-3.95l3-2c0.72-2.06 0.72-2.06 1-4l-7-2c3.32-2.52 5.55-1.96 9.19-0.16z" fill="#020202"/>
<path transform="translate(968,416)" d="m0 0c0.99 1.32 1.98 2.64 3 4-0.68 0.8-1.36 1.61-2.06 2.44-2.39 3.57-1.92 6.01-1.25 10.1 0.52 4.13 0.38 8.42-0.69 12.4l-3 2-2-3c-1.9-1-1.9-1-4-1l-3 3v-15c-6.4 0.7-6.4 0.7-10 2l-1-2h2v-3c-2.57-0.86-3.93-1.01-6.62-0.44-0.79 0.15-1.57 0.29-2.38 0.44l-2-2c10.4-4.3 10.4-4.3 15.1-4 5.07 0 8.42-1.78 12.9-4 1.66-0.68 3.33-1.35 5-2zm-34 11v3z" fill="#020202"/>
<path transform="translate(1437,425)" d="m0 0c4.92 4.85 7.46 10.1 8 17-0.23 6.23-0.23 6.23-2 8-1.6 0.21-3.21 0.37-4.81 0.5-2.58 0.21-4.91 0.42-7.39 1.16-0.89 0.17-0.89 0.17-1.8 0.34l-2-2 4-5-4-2c1.98-0.66 3.96-1.32 6-2-0.33-3.03-0.54-4.57-2.81-6.69-2.03-1.21-4.05-2.32-6.19-3.31h2v-2c3 1 3 1 4 2v-3c-5.02 0.33-5.02 0.33-9 3l-3-2 1-4-5 1 1-3c7.42-1.98 15.4-2.09 22 2z" fill="#000002"/>
<path transform="translate(169,236)" d="m0 0h1c0.06 0.88 0.12 1.76 0.18 2.67 0.09 1.16 0.17 2.32 0.26 3.52 0.12 1.72 0.12 1.72 0.24 3.48 0.27 2.85 0.73 5.53 1.32 8.33 5.8 0.02 11.6 0.04 17.4 0.05 1.97 0.01 3.95 0.02 5.92 0.03 2.84 0.01 5.67 0.01 8.51 0.02 0.88 0 1.77 0.01 2.68 0.01 4.38 0.14 4.38 0.14 8.48-1.11 1.37-0.1 2.74-0.16 4.11-0.18 9.28-0.23 17.4-0.67 26.2-3.98 3.04-0.93 5.57-0.98 8.73-0.84-5.05 3.37-11 5.04-17 6v2c-6.46 1.95-12.3 2.22-19 2v1c-7.14 0.88-14.2 1.33-21.4 1.62-1.6 0.08-1.6 0.08-3.23 0.16-6.55 0.27-12.8 0.08-19.3-0.78l1-2-4-1v-2l-2-1c-1.19-1.88-1.19-1.88-2-4l1-3c0.22-1.89 0.41-3.79 0.56-5.69 0.09-0.99 0.17-1.99 0.26-3.01 0.06-0.76 0.12-1.52 0.18-2.3z" fill="#0096B6"/>
<path transform="translate(761,457)" d="m0 0c0.91 0.85 1.82 1.69 2.75 2.56 4.4 3.15 8.11 2.71 13.3 2.04 2.62-0.53 4.91-1.22 7.38-2.22 3.58-1.39 5-1.6 8.56-0.38-1.15 4.37-2.13 8.03-5.19 11.4-6.84 3.8-14.9 4.93-22.4 2.84-5.11-1.87-9.02-3.84-12.4-8.28-0.81-2.81-0.81-2.81-1-5l1 3c2.5 1.22 2.5 1.22 5 2l1-1v-3h2v-4z" fill="#010102"/>
<path transform="translate(1028 416)" d="m0 0c1.23-0.04 2.47-0.07 3.74-0.11 3.38 0.42 3.38 0.42 5.78 2.19 1.64 2.28 2.19 3.48 2.42 6.23 0.1 0.99 0.1 0.99 0.2 2-0.02 2.15-0.41 3.95-1.02 6-2.39 0.39-4.78 0.77-7.18 1.13-0.68 0.11-1.35 0.22-2.04 0.34-4.22 0.61-6.98 0.52-10.8-1.47-0.74-5.16-1.4-9.88 0-15 2.94-1.47 5.61-1.25 8.88-1.31z" fill="#FBFEFF"/>
<path transform="translate(434,407)" d="m0 0h27c2 5 2 5 1.75 7.25-0.75 1.75-0.75 1.75-2.75 2.75-2.11 0.09-4.21 0.11-6.32 0.1-1.26-0.01-2.51-0.01-3.81-0.01-1.32-0.01-2.64-0.02-3.99-0.03-1.34 0-2.68-0.01-4.02-0.01-3.29-0.01-6.57-0.03-9.86-0.05 3-2 3-2 5-2l-2-4 1-1-2-1v-2z" fill="#020202"/>
<path transform="translate(960,474)" d="m0 0c2 2 2 2 2.12 4.62-0.04 0.79-0.08 1.57-0.12 2.38-4.53 2.62-7.84 3.41-13.1 3.38-1.78 0.01-1.78 0.01-3.6 0.02-3.6-0.43-5.5-1.18-8.34-3.4l-1-3c2.17-2.69 3.58-3.88 6.94-4.81 5.62-0.52 11.5-0.08 17.1 0.81z" fill="#FBFEFF"/>
<path transform="translate(953 430)" d="m0 0c2.06 0.94 2.06 0.94 3.06 2.94 0.72 5.06 0.55 8.84-2.5 13.1-0.82 0.97-1.65 1.94-2.5 2.94-2.75-0.06-2.75-0.06-6-1-2.83-3.03-3.92-6.03-4.25-10.1 2.17-4.98 6.74-7.93 12.2-7.81z" fill="#FCFDFF"/>
<path transform="translate(828 423)" d="m0 0c1.27 0.01 2.54 0.02 3.86 0.03 1.46 0.01 1.46 0.01 2.95 0.03 0.7 4.02 1.17 7.09 0 11-5.22 1.47-9.58 2.23-15 2-0.84-3.98-1.44-7.97-2-12 3.56-1.18 6.44-1.09 10.2-1.06z" fill="#14181B"/>
<path transform="translate(497 64.9)" d="m0 0c1.39 0.01 2.79 0.02 4.18 0.04 0.71 0 1.43 0 2.16 0.01 1.76 0.01 3.52 0.03 5.28 0.05v2h4v2c2.02 0.16 4.04 0.32 6.06 0.49 1.94 0.51 1.94 0.51 3.94 3.51h-4l2 2c-0.65-0.14-1.3-0.27-1.98-0.4-4.66-0.95-9.31-1.89-14-2.6-1.17-0.19-2.35-0.37-3.56-0.56-6.9-0.85-14.7-1.49-21.4 0.56l2-5c0.78-0.06 1.57-0.12 2.37-0.19 1.01-0.08 2.03-0.16 3.07-0.25 1.01-0.08 2.02-0.16 3.06-0.25 3.34-0.42 3.19-1.3 6.88-1.41z" fill="#0096B6"/>
<path transform="translate(1289 424)" d="m0 0c5.11 3.29 7.89 7.23 9.18 13.2 0.62 4.04 0.81 7.92 0.63 12l-4 1c-1.23-3.68-1.56-7.13-2-11h-2v-2c-0.76-0.26-1.53-0.53-2.31-0.81-2.57-1.13-3.89-2.1-5.69-4.19l3-2c0.72-2.06 0.72-2.06 1-4l-7-2c3.32-2.52 5.55-1.96 9.19-0.16z" fill="#000002"/>
<path transform="translate(256,77)" d="m0 0c10.2 2.73 10.2 2.73 13 7 2.06 0.72 2.06 0.72 4 1v2h2v2h2c1.44 1.83 1.44 1.83 3 4.25 0.52 0.79 1.03 1.58 1.56 2.39 2.62 4.3 2.62 4.3 3.44 6.36l-1 3c-0.58-0.83-1.15-1.65-1.75-2.5-0.74-0.83-1.49-1.65-2.25-2.5h-4c-1.99-1.91-3.73-3.77-5.5-5.88-4.11-4.85-4.11-4.85-9.5-8.12l-1-2h3l-4-2v-3c-0.99-0.33-1.98-0.66-3-1v-1z" fill="#0096B6"/>
<path transform="translate(848 422)" d="m0 0c0.79 0.08 1.59 0.16 2.41 0.24 0.79 0.07 1.58 0.13 2.4 0.2 2.1 0.68 2.1 0.68 3.24 2.42 0.99 2.61 0.96 4.23 0.68 6.99-0.13 1.33-0.13 1.33-0.26 2.68-0.16 1.37-0.16 1.37-0.31 2.77-0.09 0.93-0.18 1.86-0.27 2.82-0.54 5.09-0.54 5.09-0.98 7l-2 1-2-14c-0.99-0.33-1.98-0.66-3-1-0.05 0.64-0.1 1.27-0.15 1.93-0.08 0.83-0.15 1.65-0.23 2.5-0.1 1.24-0.1 1.24-0.21 2.5-0.14 0.68-0.27 1.36-0.41 2.07l-2 1c-1.68-13-1.68-13-1-19 2-2 2-2 4.09-2.12z" fill="#010202"/>
<path transform="translate(776,432)" d="m0 0c2.97 1.32 4.53 2.29 6.31 5 0.69 2 0.69 2 0.69 5-3.29 0.25-6.58 0.47-9.88 0.69-1.4 0.11-1.4 0.11-2.83 0.22-0.9 0.05-1.8 0.11-2.72 0.16-0.83 0.06-1.65 0.12-2.51 0.18-0.68-0.08-1.36-0.17-2.06-0.25l-2-3c3.46-6.75 7.42-8.81 15-8z" fill="#FBFEFF"/>
<path transform="translate(1425 432)" d="m0 0c3.7 0.45 4.22 0.6 6.56 3.19 0.66 1.07 1.32 2.14 2 3.25l-1 4c-5.94 0.33-11.9 0.66-18 1l-2-4c4.37-5.71 4.37-5.71 6.88-6.88 1.86-0.11 3.71-0.32 5.56-0.56z" fill="#FBFEFF"/>
<path transform="translate(1283,432)" d="m0 0c4.24 3.18 4.05 4.31 5 10-5.94 0.33-11.9 0.66-18 1l-2-4c1.39-3.81 2.81-4.9 6.38-6.88 3.64-1.13 5.13-1.53 8.62-0.12z" fill="#FBFEFF"/>
<path transform="translate(1138,432)" d="m0 0 1 3c2.19 0 4.38-0.03 6.56-0.19 2.98 0.23 3.52 1.01 5.44 3.19 0.99 0.33 1.98 0.66 3 1l-1 1h5l1 2h5l1 7c-0.74-0.52-1.48-1.03-2.25-1.56-3.22-1.69-3.46-1.27-6.75-0.44-2.72-0.82-5.25-1.7-7.88-2.75-0.69-0.27-1.38-0.53-2.1-0.8-4.13-1.61-8.09-3.4-12-5.45v-4l4-2z" fill="#FBFDFF"/>
<path transform="translate(1040,430)" d="m0 0c1.68 0.29 3.34 0.62 5 1 0.29 3.05 0.4 5.96 0 9-1.88 2.19-1.88 2.19-5 3-4.42-0.25-8.59-0.51-11.7-3.84-1.22-2.09-1.84-3.79-2.26-6.16 1.39-0.2 1.39-0.2 2.81-0.4 1.2-0.18 2.39-0.36 3.63-0.54 1.19-0.17 2.39-0.35 3.62-0.52 2.82-0.23 2.82-0.23 3.94-1.54z" fill="#06080A"/>
<path transform="translate(962,453)" d="m0 0v3h-2l2 5h6l1 2-2 2c-0.87-0.33-1.73-0.66-2.62-1-4.96-1.46-9.96-1.05-15.1-0.88-3.27-0.12-5.38-0.71-8.3-2.12v-4c0.87-0.04 1.74-0.07 2.63-0.11 6.22-0.36 12.9-3.89 18.4-3.89z" fill="#FBFDFF"/>
<path transform="translate(1109,439)" d="m0 0c3.12 3.12 2.95 6.69 3.11 11 0 1.01-0.01 2.03-0.01 3.07-0.01 1.11-0.01 2.22-0.01 3.36-0.01 1.15-0.02 2.29-0.03 3.47 0 1.16-0.01 2.33-0.01 3.53-0.01 2.86-0.03 5.73-0.05 8.59-3 1-4.17 1.01-7.19 0.56-1.88-0.28-1.88-0.28-3.81-0.56l1-3h5c-0.08-1.16-0.17-2.32-0.25-3.51-0.11-1.54-0.21-3.08-0.31-4.61-0.06-0.77-0.11-1.53-0.17-2.31-0.28-4.37-0.2-8.25 0.73-12.6h2v-7z" fill="#000002"/>
<path transform="translate(854,403)" d="m0 0c1.88 1.12 1.88 1.12 3 3 0.69 3.19 0.69 3.19 1 6-3.08 2.4-5.28 3.28-9.12 3-3.3-0.54-3.71-0.78-5.88-3.56-0.33-0.81-0.66-1.61-1-2.44 3.33-5.9 5.15-6.48 12-6z" fill="#000002"/>
<path transform="translate(1181,403)" d="m0 0c2.05 3.45 3.06 5.32 2.69 9.38-0.23 0.86-0.46 1.73-0.69 2.62-1.77-0.11-3.54-0.24-5.31-0.38-1.48-0.1-1.48-0.1-2.99-0.21-2.7-0.41-2.7-0.41-5.7-2.41 0.48-5.4 0.48-5.4 2.62-7.88 3.21-1.51 5.88-1.32 9.38-1.12z" fill="#000002"/>
<path transform="translate(419 218)" d="m0 0c2.69 2.2 3.15 3.76 4.38 6.94 0.66 0.33 1.31 0.66 2 1 2.78 1.39 2.97 3.15 4 6 0.66 0.33 1.31 0.66 2 1-2.48-0.5-2.48-0.5-5-1-0.33-0.99-0.67-1.98-1-3-3.29-0.8-4.72-1.1-8 0-1.68-0.3-3.35-0.63-5-1h-3c1.31-1.65 2.63-3.3 4-5-0.33 0.33-0.67 0.66-1 1-0.67-0.33-1.32-0.66-2-1 0.96-2.42 1.75-3.81 3.81-5.44 2.19-0.56 2.19-0.56 4.81 0.5z" fill="#0096B6"/>
<path transform="translate(565,473)" d="m0 0 2 1c0.57 2.51 0.89 5.01 1.24 7.55 0.93 3 2.13 3.84 4.76 5.45l-1 6c-3.19 0.81-3.19 0.81-7 1-3-1.94-3-1.94-5-5-0.11-2.89 0.37-5.14 1-8 1.49 0.99 1.49 0.99 3 2l1-10z" fill="#06080A"/>
<path transform="translate(570 270)" d="m0 0c2.12 1.02 3.32 2.25 4.94 3.94-4.25 5.2-8.37 9.32-14 13l-3-3c6.51-14.1 6.51-14.1 12.1-13.9z" fill="#0096B6"/>
<path transform="translate(1414,442)" d="m0 0c2.25-0.08 4.5-0.14 6.75-0.19 1.25-0.03 2.51-0.07 3.8-0.1 3.59 0.3 4.9 0.83 7.45 3.29-4.23 5.67-4.23 5.67-7.38 7-3.45 0-6.35-0.91-9.62-2 0.02-0.76 0.04-1.53 0.06-2.31 0.07-2.79 0.07-2.79-1.06-5.69z" fill="#07090B"/>
<path transform="translate(930,490)" d="m0 0c0.87 0.14 1.74 0.29 2.63 0.44 1.16 0.18 2.31 0.37 3.49 0.56 1.71 0.28 1.71 0.28 3.45 0.56 3.19 0.41 6.22 0.44 9.43 0.44 2.46 0.84 4.68 1.84 7 3-1 1-1 1-3.32 1.11-1 0-2-0.01-3.03-0.01-1.08-0.01-2.16-0.01-3.27-0.01-1.14-0.01-2.27-0.02-3.44-0.03-1.14 0-2.28-0.01-3.46-0.01-2.83-0.01-5.65-0.03-8.48-0.05v-3l-1-3z" fill="#FBFEFE"/>
<path transform="translate(1261,429)" d="m0 0 4 1 2 7h-2v3c-3.15 0.7-5.73 1-9 1 0.48-5 2.03-7.98 5-12z" fill="#06080A"/>
<path transform="translate(1271 443)" d="m0 0c0.72 0 1.44 0.01 2.19 0.01 0.72 0 1.44-0.01 2.19-0.01 1.81 0.13 1.81 0.13 2.81 1.13 1.66 0.04 3.33 0.05 5 0-0.99 1.49-0.99 1.49-2 3h-2v2c-2.97 0.66-5.94 1.32-9 2l-2-7c1-1 1-1 2.81-1.13z" fill="#06080A"/>
<path transform="translate(709,438)" d="m0 0c0.95 0.35 1.9 0.7 2.88 1.06 2.99 1.29 2.99 1.29 5.12-0.06v3l2 1c-0.45 0.41-0.91 0.82-1.38 1.25-1.68 1.81-2.61 3.5-3.62 5.75-0.99-0.33-1.98-0.66-3-1l-2-11z" fill="#060809"/>
<path transform="translate(965,491)" d="m0 0 1 3 2 2c-2.08 0.08-4.17 0.14-6.25 0.19-1.74 0.05-1.74 0.05-3.52 0.1-3.45-0.31-4.75-0.95-7.23-3.29 4.84-1.34 8.93-2.25 14-2z" fill="#FCFDFF"/>
<path transform="translate(943,484)" d="m0 0 11 1v1h-6l1 6c-4.46 0.5-4.46 0.5-9 1l-1-2h3l1-7z" fill="#010A0C"/>
<path transform="translate(492 256)" d="m0 0c1.01-0.02 1.01-0.02 2.04-0.04 3.7-0.01 6.44 0.19 9.58 2.23-3 1.5-6.08 1.18-9.37 1.19-1.01 0.01-1.01 0.01-2.04 0.03-3.7 0.01-6.44-0.18-9.59-2.22 3.01-1.5 6.09-1.19 9.38-1.19z" fill="#0096B6"/>
<path transform="translate(431,233)" d="m0 0c0.45 0.35 0.9 0.7 1.36 1.07 4.98 3.82 10.1 7.17 15.5 10.4 0.7 0.5 1.4 1 2.12 1.52v2c-4.04-1.22-7.51-2.6-11-5l-1-2c-2.02-1.13-2.02-1.13-4-2v-2c-2.48-0.99-2.48-0.99-5-2l2-2z" fill="#0096B6"/>
<path transform="translate(949,492)" d="m0 0c2.46 0.84 4.68 1.84 7 3-1 1-1 1-4.16 1.1-1.93-0.02-1.93-0.02-3.9-0.04-1.29-0.01-2.58-0.02-3.91-0.02-1-0.02-2-0.03-3.03-0.04v-3c2.79-1.39 4.9-1.18 8-1z" fill="#98D5E3"/>
<path transform="translate(282,105)" d="m0 0 2 4h2c0.87 2.27 1.72 4.54 2.56 6.81 0.37 0.97 0.37 0.97 0.75 1.95 1.8 4.9 1.8 4.9 0.69 8.24v-2h-2c-0.51-1.32-0.51-1.32-1.02-2.67-0.45-1.16-0.9-2.32-1.36-3.52-0.66-1.72-0.66-1.72-1.33-3.48-1.08-2.78-2.17-5.56-3.29-8.33l1-1z" fill="#0096B6"/>
<path transform="translate(275,232)" d="m0 0c0 3 0 3-1.81 5.19-2.19 1.81-2.19 1.81-5.19 1.81l-1 3h-3v2c-1.98 0.66-3.96 1.32-6 2 1.42-4.26 4.26-5.71 8-8 0.89-0.35 1.77-0.7 2.69-1.06 2.79-1.13 4.31-2.72 6.31-4.94z" fill="#0097B7"/>
<path transform="translate(729,452)" d="m0 0h3l-1 8-4 1-1-8 1 3h2v-4z" fill="#07090B"/>
<path transform="translate(815,440)" d="m0 0c2.1 2.36 2.97 3.55 3.19 6.75-0.06 0.74-0.13 1.49-0.19 2.25h-2v5c-2.11-3.16-2.25-3.95-2.19-7.56 0.01-0.79 0.02-1.57 0.02-2.38 0.17-2.06 0.17-2.06 1.17-4.06z" fill="#060709"/>
<path transform="translate(563,430)" d="m0 0c3 3 3 3 3.31 6.38-0.29 3.34-0.86 5.63-2.31 8.62h-1v-15z" fill="#07090B"/>
<path transform="translate(254,248)" d="m0 0c-4.54 3.03-9.54 5.25-15.1 4.69-0.64-0.23-1.28-0.46-1.94-0.69 5.23-3.48 10.8-4.31 17-4z" fill="#0098B7"/>
<path transform="translate(573,470)" d="m0 0c2.43 1.66 3.61 2.47 5 5 0.15 4.08-0.35 7.98-1 12h-1c-0.04-0.69-0.07-1.37-0.11-2.08-0.07-0.9-0.13-1.8-0.2-2.73-0.06-0.9-0.12-1.79-0.18-2.71-0.58-2.83-1.43-3.58-3.51-5.48 0.31-2.19 0.31-2.19 1-4z" fill="#FCFDFF"/>
<path transform="translate(666,243)" d="m0 0c0.99 0.33 1.98 0.66 3 1v9h-3v-10z" fill="#020202"/>
<path transform="translate(395,122)" d="m0 0c1.8 2.7 2.93 5.07 4.12 8.06 0.36 0.88 0.71 1.76 1.08 2.66 0.8 2.28 0.8 2.28 0.8 4.28h-2c-0.87-1.74-1.72-3.49-2.56-5.25-0.72-1.46-0.72-1.46-1.44-2.95-1.04-2.9-1.11-4 0-6.8z" fill="#0097B7"/>
<path transform="translate(681,118)" d="m0 0 4 1c-0.69 2.44-0.69 2.44-2 5-2.62 0.81-2.62 0.81-5 1 0.61-2.96 1.25-4.38 3-7z" fill="#06080A"/>
<path transform="translate(692,423)" d="m0 0 2 1c0.41 2.07 0.41 2.07 0.62 4.56 0.08 0.83 0.15 1.66 0.23 2.51 0.05 0.63 0.1 1.27 0.15 1.93-3.88-0.88-3.88-0.88-5-2 0.72-6.72 0.72-6.72 2-8z" fill="#FCFDFF"/>
<path transform="translate(574,421)" d="m0 0c2.62-0.19 2.62-0.19 5 0l-1 5-4 1-2-3 2-3z" fill="#FCFDFF"/>
<path transform="translate(1311,110)" d="m0 0 4 1-1 7-2-1c-0.99-0.33-1.98-0.66-3-1v-4h3l-1-2z" fill="#020202"/>
</svg>
